<svg width="36" height="1411" viewBox="0 0 36 1411" fill="none" xmlns="http://www.w3.org/2000/svg">
<path d="M14.2878 17.5794L15.2878 17.582V17.5794H14.2878ZM14.1167 82.6871L13.1167 82.6845V82.6871H14.1167ZM14.1167 135.988L14.0822 136.988L15.1167 137.023V135.988H14.1167ZM11.6356 135.903L10.9284 136.61L11.2072 136.889L11.6011 136.902L11.6356 135.903ZM9.92445 134.192H8.92445V134.606L9.21734 134.899L9.92445 134.192ZM9.92445 13.6438H10.9245L10.9244 13.6373L9.92445 13.6438ZM9.83889 0.468262L10.8389 0.461768L10.8324 -0.531738L9.83889 -0.531738V0.468262ZM0.085556 0.468262V-0.531738L-0.914444 -0.531738V0.468262L0.085556 0.468262ZM15.9133 147.538V148.538L15.9252 148.538L15.9133 147.538ZM23.0144 139.239H22.0144L22.0145 139.25L23.0144 139.239ZM23.0144 12.1038V11.1038H22.0144V12.1038H23.0144ZM24.2978 12.1038L24.6602 11.1718L24.4854 11.1038H24.2978V12.1038ZM27.0356 14.3283H28.0356V13.9996L27.8406 13.7351L27.0356 14.3283ZM27.0356 147.709H26.0356V148.709H27.0356V147.709ZM35.8478 147.709V148.709H36.8381L36.8477 147.719L35.8478 147.709ZM35.9333 138.897L36.9333 138.907V138.897H35.9333ZM35.9333 9.36604H36.9334L36.9333 9.35642L35.9333 9.36604ZM20.6189 -0.531738C18.2822 -0.531738 16.3742 0.22236 15.0848 1.86026C13.8313 3.45259 13.2878 5.72568 13.2878 8.51048H15.2878C15.2878 5.93381 15.7995 4.18578 16.6563 3.09738C17.4773 2.05453 18.7349 1.46826 20.6189 1.46826V-0.531738ZM13.2878 8.51048V17.5794H15.2878V8.51048H13.2878ZM13.2878 17.5767L13.1167 82.6845L15.1167 82.6898L15.2878 17.582L13.2878 17.5767ZM13.1167 82.6871L13.1167 114.428H15.1167L15.1167 82.6871H13.1167ZM13.1167 114.428V135.988H15.1167V114.428H13.1167ZM14.1511 134.989L11.67 134.903L11.6011 136.902L14.0822 136.988L14.1511 134.989ZM12.3427 135.196L10.6316 133.484L9.21734 134.899L10.9284 136.61L12.3427 135.196ZM10.9244 134.192V110.407H8.92445V134.192H10.9244ZM10.9244 110.407L10.9244 33.4072H8.92445L8.92445 110.407H10.9244ZM10.9244 33.4072L10.9244 13.6438H8.92445L8.92445 33.4072H10.9244ZM10.9244 13.6373L10.8389 0.461768L8.83891 0.474755L8.92447 13.6503L10.9244 13.6373ZM9.83889 -0.531738L0.085556 -0.531738V1.46826L9.83889 1.46826V-0.531738ZM-0.914444 0.468262V9.19493H1.08556V0.468262L-0.914444 0.468262ZM-0.914444 9.19493V30.6694H1.08556V9.19493H-0.914444ZM-0.914444 30.6694L-0.914444 64.5494H1.08556L1.08556 30.6694H-0.914444ZM-0.914444 64.5494V117.252H1.08556V64.5494H-0.914444ZM-0.914444 117.252V138.64H1.08556V117.252H-0.914444ZM-0.914444 138.64C-0.914444 141.756 -0.150566 144.277 1.55328 146.014C3.26065 147.755 5.74422 148.538 8.81222 148.538V146.538C6.06245 146.538 4.18268 145.839 2.98116 144.614C1.77612 143.385 1.08556 141.457 1.08556 138.64H-0.914444ZM8.81222 148.538H15.9133V146.538H8.81222V148.538ZM15.9252 148.538C18.5123 148.507 20.6162 147.737 22.0418 146.071C23.4454 144.431 24.0442 142.091 24.0144 139.229L22.0145 139.25C22.0417 141.864 21.4856 143.645 20.5221 144.771C19.5807 145.871 18.1055 146.512 15.9014 146.538L15.9252 148.538ZM24.0144 139.239V136.33H22.0144V139.239H24.0144ZM24.0144 136.33V113.487H22.0144V136.33H24.0144ZM24.0144 113.487L24.0144 79.7783H22.0144L22.0144 113.487H24.0144ZM24.0144 79.7783L24.0144 12.1038H22.0144L22.0144 79.7783H24.0144ZM23.0144 13.1038H24.2978V11.1038H23.0144V13.1038ZM23.9353 13.0358C24.7497 13.3525 25.5194 13.9563 26.2305 14.9215L27.8406 13.7351C26.9547 12.5328 25.8992 11.6536 24.6602 11.1718L23.9353 13.0358ZM26.0356 14.3283L26.0356 33.3216H28.0356L28.0356 14.3283H26.0356ZM26.0356 33.3216L26.0356 134.106H28.0356L28.0356 33.3216H26.0356ZM26.0356 134.106L26.0356 147.709H28.0356L28.0356 134.106H26.0356ZM27.0356 148.709H35.8478V146.709H27.0356V148.709ZM36.8477 147.719L36.9333 138.907L34.9334 138.887L34.8478 147.7L36.8477 147.719ZM36.9333 138.897V117.508H34.9333V138.897H36.9333ZM36.9333 117.508L36.9333 30.8405H34.9333L34.9333 117.508H36.9333ZM36.9333 30.8405L36.9333 9.36604H34.9333L34.9333 30.8405H36.9333ZM36.9333 9.35642C36.9036 6.27253 36.2306 3.77652 34.7467 2.04252C33.2362 0.277461 31.0311 -0.531738 28.3189 -0.531738V1.46826C30.6259 1.46826 32.1995 2.14203 33.2272 3.3429C34.2814 4.57482 34.906 6.5277 34.9334 9.37565L36.9333 9.35642ZM28.3189 -0.531738L21.1322 -0.531738V1.46826L28.3189 1.46826V-0.531738ZM21.1322 -0.531738H20.6189V1.46826H21.1322V-0.531738ZM27.0356 247.643V248.643H28.0371L28.0356 247.642L27.0356 247.643ZM26.95 192.546H25.95L25.95 192.547L26.95 192.546ZM26.95 180.995L26.9404 179.996L25.95 180.005V180.995H26.95ZM35.8478 180.91L36.8477 180.9L36.8381 179.9L35.8382 179.91L35.8478 180.91ZM35.9333 189.808H36.9334L36.9333 189.798L35.9333 189.808ZM35.9333 327.98V328.98H36.9333V327.98H35.9333ZM27.0356 327.98H26.0356V328.98H27.0356V327.98ZM27.0356 259.279H28.0356V258.279H27.0356V259.279ZM0.171112 259.279H-0.828888V260.279H0.171112V259.279ZM0.171112 247.643V246.643H-0.828888V247.643H0.171112ZM28.0356 247.642L27.95 192.544L25.95 192.547L26.0356 247.645L28.0356 247.642ZM27.95 192.546V180.995H25.95V192.546H27.95ZM26.9596 181.995L35.8574 181.91L35.8382 179.91L26.9404 179.996L26.9596 181.995ZM34.8478 180.92L34.9334 189.817L36.9333 189.798L36.8477 180.9L34.8478 180.92ZM34.9333 189.808L34.9333 211.282H36.9333L36.9333 189.808H34.9333ZM34.9333 211.282L34.9333 297.95H36.9333L36.9333 211.282H34.9333ZM34.9333 297.95L34.9333 319.339H36.9333L36.9333 297.95H34.9333ZM34.9333 319.339V327.98H36.9333V319.339H34.9333ZM35.9333 326.98H27.0356V328.98H35.9333V326.98ZM28.0356 327.98L28.0356 314.548H26.0356L26.0356 327.98H28.0356ZM28.0356 314.548L28.0356 259.279H26.0356L26.0356 314.548H28.0356ZM27.0356 258.279H0.171112V260.279H27.0356V258.279ZM1.17111 259.279V247.643H-0.828888V259.279H1.17111ZM0.171112 248.643H5.21889V246.643H0.171112V248.643ZM5.21889 248.643H27.0356V246.643H5.21889V248.643ZM0.085556 508.593H-0.914444V509.593H0.085556V508.593ZM9.92445 508.593V509.593H10.9244V508.593H9.92445ZM9.92445 374.698L9.21734 373.991L8.92445 374.284V374.698H9.92445ZM11.6356 372.987V371.987H11.2213L10.9284 372.28L11.6356 372.987ZM14.3733 372.987H15.3733V371.987H14.3733V372.987ZM14.3733 508.165H13.3733V509.165H14.3733V508.165ZM22.5867 508.165V509.165H23.5867V508.165H22.5867ZM22.5867 372.987V371.987H21.5867V372.987H22.5867ZM24.2978 372.987L24.6602 372.055L24.4854 371.987H24.2978V372.987ZM27.0356 375.212H28.0356V374.883L27.8406 374.618L27.0356 375.212ZM27.0356 508.593H26.0356V509.593H27.0356V508.593ZM35.8478 508.593V509.593H36.8381L36.8477 508.602L35.8478 508.593ZM35.9333 499.781L36.9333 499.79V499.781H35.9333ZM35.9333 370.249H36.9334L36.9333 370.24L35.9333 370.249ZM-0.914444 444.341V478.221H1.08556V444.341H-0.914444ZM-0.914444 478.221V499.695H1.08556V478.221H-0.914444ZM-0.914444 499.695V508.593H1.08556V499.695H-0.914444ZM0.085556 509.593H9.92445V507.593H0.085556V509.593ZM10.9244 508.593V495.246H8.92445V508.593H10.9244ZM10.9244 495.246L10.9244 475.483H8.92445L8.92445 495.246H10.9244ZM10.9244 475.483L10.9244 398.483H8.92445L8.92445 475.483H10.9244ZM10.9244 398.483L10.9244 374.698H8.92445L8.92445 398.483H10.9244ZM10.6315 375.405L12.3427 373.694L10.9284 372.28L9.21734 373.991L10.6315 375.405ZM11.6356 373.987H14.3733V371.987H11.6356V373.987ZM13.3733 372.987L13.3733 378.463H15.3733L15.3733 372.987H13.3733ZM13.3733 378.463L13.3733 508.165H15.3733L15.3733 378.463H13.3733ZM14.3733 509.165H22.5867V507.165H14.3733V509.165ZM23.5867 508.165L23.5867 372.987H21.5867L21.5867 508.165H23.5867ZM22.5867 373.987H24.2978V371.987H22.5867V373.987ZM23.9353 373.919C24.7497 374.236 25.5194 374.84 26.2305 375.805L27.8406 374.618C26.9547 373.416 25.8992 372.537 24.6602 372.055L23.9353 373.919ZM26.0356 375.212L26.0356 394.205H28.0356L28.0356 375.212H26.0356ZM26.0356 394.205L26.0356 494.989H28.0356L28.0356 394.205H26.0356ZM26.0356 494.989V508.593H28.0356V494.989H26.0356ZM27.0356 509.593H35.8478V507.593H27.0356V509.593ZM36.8477 508.602L36.9333 499.79L34.9334 499.771L34.8478 508.583L36.8477 508.602ZM36.9333 499.781L36.9333 478.392H34.9333L34.9333 499.781H36.9333ZM36.9333 478.392L36.9333 391.724H34.9333L34.9333 478.392H36.9333ZM36.9333 391.724L36.9333 370.249H34.9333L34.9333 391.724H36.9333ZM36.9333 370.24C36.9036 367.156 36.2306 364.66 34.7467 362.926C33.2362 361.161 31.0311 360.352 28.3189 360.352V362.352C30.6259 362.352 32.1995 363.025 33.2272 364.226C34.2814 365.458 34.906 367.411 34.9334 370.259L36.9333 370.24ZM28.3189 360.352H12.6622V362.352H28.3189V360.352ZM12.6622 360.352H8.81222V362.352H12.6622V360.352ZM8.81222 360.352C5.74422 360.352 3.26065 361.135 1.55328 362.876C-0.150566 364.613 -0.914444 367.134 -0.914444 370.249H1.08556C1.08556 367.433 1.77612 365.505 2.98116 364.276C4.18268 363.051 6.06245 362.352 8.81222 362.352V360.352ZM-0.914444 370.249V391.638H1.08556V370.249H-0.914444ZM-0.914444 391.638L-0.914444 444.341H1.08556L1.08556 391.638H-0.914444ZM0.085556 677.313L0.0929642 676.313L-0.914444 676.306V677.313H0.085556ZM0.085556 689.034H-0.914444V690.034H0.085556V689.034ZM8.81222 689.034V690.034L8.81828 690.034L8.81222 689.034ZM22.9289 688.949V687.949L22.9228 687.949L22.9289 688.949ZM28.4044 688.949L28.4159 687.949H28.4044V688.949ZM35.9333 680.222L36.9333 680.232V680.222H35.9333ZM35.9333 550.691H36.9334L36.9333 550.681L35.9333 550.691ZM0.085556 541.793V540.793H-0.914444V541.793H0.085556ZM0.085556 553.429H-0.914444V554.429H0.085556V553.429ZM14.0311 553.429H15.0311V552.429H14.0311V553.429ZM14.0311 677.399V678.399H15.0311V677.399H14.0311ZM11.6356 677.399L11.6281 678.399H11.6356V677.399ZM22.7578 553.429V552.429H21.7578V553.429H22.7578ZM24.2978 553.429L24.6602 552.497L24.4854 552.429H24.2978V553.429ZM27.0356 555.653H28.0356V555.325L27.8406 555.06L27.0356 555.653ZM27.0356 675.431L27.8443 676.019L28.0356 675.756V675.431H27.0356ZM22.7578 677.313H21.7578V678.313H22.7578V677.313ZM-0.914444 677.313V689.034H1.08556V677.313H-0.914444ZM0.085556 690.034H8.81222V688.034H0.085556V690.034ZM8.81828 690.034L22.9349 689.949L22.9228 687.949L8.80616 688.034L8.81828 690.034ZM22.9289 689.949H28.4044V687.949H22.9289V689.949ZM28.393 689.949C31.0765 689.98 33.265 689.202 34.7655 687.463C36.2383 685.756 36.9036 683.286 36.9333 680.232L34.9334 680.212C34.906 683.033 34.288 684.955 33.2512 686.157C32.2421 687.326 30.6946 687.975 28.4159 687.949L28.393 689.949ZM36.9333 680.222L36.9333 658.833H34.9333L34.9333 680.222H36.9333ZM36.9333 658.833L36.9333 572.166H34.9333L34.9333 658.833H36.9333ZM36.9333 572.166L36.9333 550.691H34.9333L34.9333 572.166H36.9333ZM36.9333 550.681C36.9036 547.598 36.2306 545.102 34.7467 543.368C33.2362 541.602 31.0311 540.793 28.3189 540.793V542.793C30.6259 542.793 32.1995 543.467 33.2272 544.668C34.2814 545.9 34.906 547.853 34.9334 550.701L36.9333 550.681ZM28.3189 540.793H12.6622V542.793H28.3189V540.793ZM12.6622 540.793H8.81222V542.793H12.6622V540.793ZM8.81222 540.793H0.085556V542.793H8.81222V540.793ZM-0.914444 541.793V553.429H1.08556V541.793H-0.914444ZM0.085556 554.429H14.0311V552.429H0.085556V554.429ZM13.0311 553.429V559.076H15.0311V553.429H13.0311ZM13.0311 559.076L13.0311 677.399H15.0311L15.0311 559.076H13.0311ZM14.0311 676.399H11.6356V678.399H14.0311V676.399ZM11.643 676.399L0.0929642 676.313L0.0781479 678.313L11.6281 678.399L11.643 676.399ZM23.7578 672.094L23.7578 602.538H21.7578L21.7578 672.094H23.7578ZM23.7578 602.538V553.429H21.7578V602.538H23.7578ZM22.7578 554.429H24.2978V552.429H22.7578V554.429ZM23.9353 554.361C24.7497 554.678 25.5194 555.281 26.2305 556.246L27.8406 555.06C26.9547 553.858 25.8992 552.979 24.6602 552.497L23.9353 554.361ZM26.0356 555.653V574.647H28.0356V555.653H26.0356ZM26.0356 574.647L26.0356 675.431H28.0356L28.0356 574.647H26.0356ZM26.2268 674.843C25.5372 675.791 24.4983 676.313 22.9289 676.313V678.313C25.0098 678.313 26.7087 677.581 27.8443 676.019L26.2268 674.843ZM22.9289 676.313H22.7578V678.313H22.9289V676.313ZM23.7578 677.313V672.094H21.7578V677.313H23.7578ZM0.171112 806.422L1.17112 806.424L1.17111 806.42L0.171112 806.422ZM0.085556 839.104L-0.914444 839.101V839.104H0.085556ZM0.085556 869.476H-0.914444L-0.914444 870.485L0.0943298 870.476L0.085556 869.476ZM9.83889 869.391L9.84766 870.391L10.8325 870.382L10.8389 869.397L9.83889 869.391ZM9.92445 856.129L10.9244 856.136V856.129H9.92445ZM9.92445 735.582L9.21734 734.875L8.92445 735.167V735.582H9.92445ZM11.6356 733.871V732.871H11.2213L10.9284 733.163L11.6356 733.871ZM35.9333 733.871V734.871H36.9407L36.9333 733.863L35.9333 733.871ZM35.8478 722.235L36.8478 722.228L36.8405 721.235H35.8478V722.235ZM0.085556 752.522H-0.914444V752.523L0.085556 752.522ZM-0.828888 806.419L-0.914444 839.101L1.08555 839.107L1.1711 806.424L-0.828888 806.419ZM-0.914444 839.104V860.578H1.08556V839.104H-0.914444ZM-0.914444 860.578V869.476H1.08556V860.578H-0.914444ZM0.0943298 870.476L9.84766 870.391L9.83012 868.391L0.0767822 868.476L0.0943298 870.476ZM10.8389 869.397L10.9244 856.136L8.92447 856.123L8.83891 869.384L10.8389 869.397ZM10.9244 856.129L10.9244 836.366H8.92445L8.92445 856.129H10.9244ZM10.9244 836.366L10.9244 759.366H8.92445L8.92445 836.366H10.9244ZM10.9244 759.366V735.582H8.92445V759.366H10.9244ZM10.6315 736.289L12.3427 734.578L10.9284 733.163L9.21734 734.875L10.6315 736.289ZM11.6356 734.871H14.0311V732.871H11.6356V734.871ZM14.0311 734.871H22.9289V732.871H14.0311V734.871ZM22.9289 734.871H35.9333V732.871H22.9289V734.871ZM36.9333 733.863L36.8478 722.228L34.8478 722.242L34.9334 733.878L36.9333 733.863ZM35.8478 721.235H28.3189V723.235H35.8478V721.235ZM28.3189 721.235H12.6622V723.235H28.3189V721.235ZM12.6622 721.235H8.81222V723.235H12.6622V721.235ZM8.81222 721.235C5.74422 721.235 3.26065 722.018 1.55328 723.759C-0.150566 725.496 -0.914444 728.018 -0.914444 731.133H1.08556C1.08556 728.316 1.77612 726.388 2.98116 725.16C4.18268 723.935 6.06245 723.235 8.81222 723.235V721.235ZM-0.914444 731.133V752.522H1.08556V731.133H-0.914444ZM-0.914444 752.523L-0.828888 806.423L1.17111 806.42L1.08556 752.52L-0.914444 752.523ZM27.0356 969.41V970.41H28.0371L28.0356 969.408L27.0356 969.41ZM26.95 914.312H25.95L25.95 914.314L26.95 914.312ZM26.95 902.762L26.9404 901.762L25.95 901.772V902.762H26.95ZM35.8478 902.677L36.8477 902.667L36.8381 901.667L35.8382 901.677L35.8478 902.677ZM35.9333 911.574H36.9334L36.9333 911.565L35.9333 911.574ZM35.9333 1049.75V1050.75H36.9333V1049.75H35.9333ZM27.0356 1049.75H26.0356V1050.75H27.0356V1049.75ZM27.0356 981.046H28.0356V980.046H27.0356V981.046ZM0.171112 981.046H-0.828888V982.046H0.171112V981.046ZM0.171112 969.41V968.41H-0.828888V969.41H0.171112ZM28.0356 969.408L27.95 914.311L25.95 914.314L26.0356 969.411L28.0356 969.408ZM27.95 914.312V902.762H25.95V914.312H27.95ZM26.9596 903.762L35.8574 903.677L35.8382 901.677L26.9404 901.762L26.9596 903.762ZM34.8478 902.686L34.9334 911.584L36.9333 911.565L36.8477 902.667L34.8478 902.686ZM34.9333 911.574V933.049H36.9333V911.574H34.9333ZM34.9333 933.049L34.9333 1019.72H36.9333L36.9333 933.049H34.9333ZM34.9333 1019.72V1041.11H36.9333V1019.72H34.9333ZM34.9333 1041.11V1049.75H36.9333V1041.11H34.9333ZM35.9333 1048.75H27.0356V1050.75H35.9333V1048.75ZM28.0356 1049.75V1036.31H26.0356V1049.75H28.0356ZM28.0356 1036.31L28.0356 981.046H26.0356L26.0356 1036.31H28.0356ZM27.0356 980.046H0.171112V982.046H27.0356V980.046ZM1.17111 981.046V969.41H-0.828888V981.046H1.17111ZM0.171112 970.41H5.21889V968.41H0.171112V970.41ZM5.21889 970.41H27.0356V968.41H5.21889V970.41ZM0.085556 1218.64L0.0929642 1217.64L-0.914444 1217.63L-0.914444 1218.64H0.085556ZM0.085556 1230.36H-0.914444V1231.36H0.085556V1230.36ZM8.81222 1230.36V1231.36H8.81828L8.81222 1230.36ZM22.9289 1230.27V1229.27H22.9228L22.9289 1230.27ZM28.4044 1230.27L28.4159 1229.27H28.4044V1230.27ZM35.8478 1230.36L35.8363 1231.36L36.8478 1231.37V1230.36H35.8478ZM35.8478 1218.64H36.8478V1217.64H35.8478V1218.64ZM22.9289 1218.64L21.9291 1218.62L21.9059 1219.64H22.9289V1218.64ZM23.0144 1214.87L24.0142 1214.9L24.0144 1214.89V1214.87H23.0144ZM23.0144 1094.75V1093.75H22.0144V1094.75H23.0144ZM35.8478 1094.75V1095.75H36.8478V1094.75H35.8478ZM35.8478 1083.12H36.8478V1082.12H35.8478V1083.12ZM0.085556 1083.12V1082.12H-0.914444V1083.12H0.085556ZM0.085556 1094.75H-0.914444V1095.75H0.085556V1094.75ZM14.0311 1094.75H15.0311V1093.75H14.0311V1094.75ZM14.0311 1218.72V1219.72H15.0311V1218.72H14.0311ZM11.6356 1218.72L11.6281 1219.72H11.6356V1218.72ZM-0.914444 1218.64V1230.36H1.08556V1218.64H-0.914444ZM0.085556 1231.36H8.81222V1229.36H0.085556V1231.36ZM8.81828 1231.36L22.9349 1231.27L22.9228 1229.27L8.80616 1229.36L8.81828 1231.36ZM22.9289 1231.27H28.4044V1229.27H22.9289V1231.27ZM28.393 1231.27L35.8363 1231.36L35.8593 1229.36L28.4159 1229.27L28.393 1231.27ZM36.8478 1230.36V1218.64H34.8478V1230.36H36.8478ZM35.8478 1217.64H22.9289V1219.64H35.8478V1217.64ZM23.9286 1218.66L24.0142 1214.9L22.0147 1214.85L21.9291 1218.62L23.9286 1218.66ZM24.0144 1214.87L24.0144 1142.24H22.0144L22.0144 1214.87H24.0144ZM24.0144 1142.24L24.0144 1094.75H22.0144L22.0144 1142.24H24.0144ZM23.0144 1095.75H24.2978V1093.75H23.0144V1095.75ZM24.2978 1095.75H35.8478V1093.75H24.2978V1095.75ZM36.8478 1094.75V1083.12H34.8478V1094.75H36.8478ZM35.8478 1082.12H28.3189V1084.12H35.8478V1082.12ZM28.3189 1082.12H12.6622V1084.12H28.3189V1082.12ZM12.6622 1082.12H8.81222V1084.12H12.6622V1082.12ZM8.81222 1082.12H0.085556V1084.12H8.81222V1082.12ZM-0.914444 1083.12V1094.75H1.08556V1083.12H-0.914444ZM0.085556 1095.75H14.0311V1093.75H0.085556V1095.75ZM13.0311 1094.75V1100.4H15.0311V1094.75H13.0311ZM13.0311 1100.4L13.0311 1218.72H15.0311L15.0311 1100.4H13.0311ZM14.0311 1217.72H11.6356V1219.72H14.0311V1217.72ZM11.643 1217.72L0.0929642 1217.64L0.0781479 1219.64L11.6281 1219.72L11.643 1217.72ZM14.0311 1342.01H15.0311V1341.02L14.0373 1341.01L14.0311 1342.01ZM0.171112 1341.93H-0.828888V1342.92L0.16494 1342.93L0.171112 1341.93ZM0.171112 1330.29V1329.29H-0.828888V1330.29H0.171112ZM14.0311 1330.29V1331.29H15.0311V1330.29H14.0311ZM35.9333 1263.56H36.9333V1262.56H35.9333V1263.56ZM35.9333 1275.2V1276.2H36.9333V1275.2H35.9333ZM35.9333 1399.08L36.9333 1399.09L36.9407 1398.08H35.9333V1399.08ZM35.8478 1410.72V1411.72H36.8405L36.8478 1410.72L35.8478 1410.72ZM14.0373 1341.01L0.177284 1340.93L0.16494 1342.93L14.0249 1343.01L14.0373 1341.01ZM1.17111 1341.93L1.17111 1330.29H-0.828888L-0.828888 1341.93H1.17111ZM0.171112 1331.29H14.0311V1329.29H0.171112V1331.29ZM15.0311 1330.29L15.0311 1280.84H13.0311L13.0311 1330.29H15.0311ZM15.0311 1280.84V1275.2H13.0311V1280.84H15.0311ZM15.0311 1275.2C15.0311 1271.53 16.1459 1268.95 18.2345 1267.24C20.3625 1265.51 23.6663 1264.56 28.3189 1264.56V1262.56C23.4463 1262.56 19.6062 1263.55 16.9716 1265.69C14.2976 1267.87 13.0311 1271.1 13.0311 1275.2H15.0311ZM28.3189 1264.56H35.9333V1262.56H28.3189V1264.56ZM34.9333 1263.56V1275.2H36.9333V1263.56H34.9333ZM35.9333 1274.2H26.6933V1276.2H35.9333V1274.2ZM26.6933 1274.2C25.2241 1274.2 23.9606 1274.66 23.0948 1275.72C22.2609 1276.74 21.9289 1278.17 21.9289 1279.82H23.9289C23.9289 1278.39 24.2243 1277.5 24.6452 1276.98C25.0343 1276.5 25.6529 1276.2 26.6933 1276.2V1274.2ZM21.9289 1279.82L21.9289 1310.79H23.9289L23.9289 1279.82H21.9289ZM21.9289 1310.79L21.9289 1394.12H23.9289L23.9289 1310.79H21.9289ZM21.9289 1394.12C21.9289 1395.9 22.3261 1397.42 23.2965 1398.51C24.2856 1399.61 25.7107 1400.08 27.3778 1400.08V1398.08C26.0789 1398.08 25.2796 1397.72 24.7857 1397.17C24.2731 1396.6 23.9289 1395.64 23.9289 1394.12H21.9289ZM27.3778 1400.08H35.9333V1398.08H27.3778V1400.08ZM34.9334 1399.07L34.8478 1410.71L36.8478 1410.72L36.9333 1399.09L34.9334 1399.07ZM35.8478 1409.72H28.3189V1411.72H35.8478V1409.72ZM28.3189 1409.72C23.6663 1409.72 20.3625 1408.76 18.2345 1407.03C16.1459 1405.33 15.0311 1402.74 15.0311 1399.08H13.0311C13.0311 1403.17 14.2976 1406.4 16.9716 1408.58C19.6062 1410.73 23.4463 1411.72 28.3189 1411.72V1409.72ZM15.0311 1399.08V1393.43H13.0311V1399.08H15.0311ZM15.0311 1393.43L15.0311 1356.05H13.0311L13.0311 1393.43H15.0311ZM15.0311 1356.05V1342.01H13.0311V1356.05H15.0311Z" fill="currentColor"/>
</svg>
