<svg width="379" height="93" viewBox="0 0 379 93" fill="none" xmlns="http://www.w3.org/2000/svg">
<path d="M48.6411 29.2798L49.3021 28.5293L48.6197 27.9284L47.9567 28.5506L48.6411 29.2798ZM23.1528 32.5757L23.5488 31.6574L23.5391 31.6533L23.1528 32.5757ZM6.92969 32.2095L6.17041 31.5587L6.16571 31.5642L6.92969 32.2095ZM9.12695 52.0215L9.11695 53.0214L9.27676 51.0328L9.12695 52.0215ZM1.43652 53.5596L0.849556 52.75L0.170114 53.2426L0.537349 53.9972L1.43652 53.5596ZM15.4624 82.3804L14.5632 82.818L16.429 82.1239L15.4624 82.3804ZM15.2427 76.1182L14.5042 75.4439L14.4859 75.4639L14.4687 75.4849L15.2427 76.1182ZM18.502 74.6533L18.5787 75.6504L18.5898 75.6495L18.502 74.6533ZM25.7896 76.4111L26.1346 75.4725L26.1229 75.4683L25.7896 76.4111ZM33.2603 79.1577L32.9152 80.0963L32.9311 80.1022L32.9473 80.1075L33.2603 79.1577ZM42.1592 80.1465L42.0141 79.1571L42.0121 79.1574L42.1592 80.1465ZM50.106 75.2759L50.4222 74.3272L49.8042 74.1212L49.366 74.6032L50.106 75.2759ZM53.1821 76.3013L52.8659 77.25L53.9533 77.6124L54.1649 76.4859L53.1821 76.3013ZM56.6978 57.5879L57.6806 57.7725L57.9031 56.5879H56.6978V57.5879ZM54.5737 57.5879L53.5763 57.5166L53.4998 58.5879H54.5737V57.5879ZM43.4043 43.6719L42.6418 43.0249L41.6648 44.1764L43.1063 44.6264L43.4043 43.6719ZM52.6328 32.7954L53.3953 33.4424L54.0305 32.6938L53.2938 32.045L52.6328 32.7954ZM14.1807 42.0239L14.5422 41.0916L14.5323 41.0877L14.5224 41.0841L14.1807 42.0239ZM22.1641 45.6494L22.35 46.632L25.3038 46.0732L22.6038 44.7513L22.1641 45.6494ZM18.0991 46.4185L17.9132 45.4358L17.903 45.4379L18.0991 46.4185ZM10.0425 44.6606L9.11524 44.2862L9.10361 44.315L9.0938 44.3444L10.0425 44.6606ZM25.8262 53.5596V54.5596H25.8719L25.9175 54.5554L25.8262 53.5596ZM36.4097 52.9004L36.4234 53.9003L36.4258 53.9003L36.4097 52.9004ZM39.7422 56.3062L40.7228 56.5023L40.7313 56.4597L40.7361 56.4166L39.7422 56.3062ZM37.7646 58.7598L37.8017 57.7605L37.7832 57.7598H37.7646V58.7598ZM36.4097 58.3569L35.9427 59.2412L35.9525 59.2464L35.9625 59.2514L36.4097 58.3569ZM24.3613 53.5596V52.5596L24.0693 54.516L24.3613 53.5596ZM47.9567 28.5506C43.954 32.3076 39.4336 34.1392 34.3955 34.1392V36.1392C39.9776 36.1392 44.9786 34.0889 49.3255 30.0089L47.9567 28.5506ZM34.3955 34.1392C31.042 34.1392 27.4417 33.336 23.5488 31.6574L22.7569 33.494C26.8474 35.2577 30.7178 36.1392 34.3955 36.1392V34.1392ZM23.5391 31.6533C19.2042 29.8378 15.5823 28.9023 12.6792 28.9023V30.9023C15.196 30.9023 18.5322 31.7247 22.7665 33.4981L23.5391 31.6533ZM12.6792 28.9023C9.93602 28.9023 7.723 29.7473 6.17043 31.5587L7.68894 32.8603C8.77309 31.5954 10.3687 30.9023 12.6792 30.9023V28.9023ZM6.16571 31.5642C3.84897 34.3072 2.08916 36.8032 0.904531 39.0488C-0.275765 41.2861 -0.918457 43.3375 -0.918457 45.1733H1.08154C1.08154 43.7865 1.57411 42.0659 2.67347 39.982C3.7685 37.9063 5.43277 35.5316 7.69366 32.8547L6.16571 31.5642ZM-0.918457 45.1733C-0.918457 47.3286 -0.0121004 49.1026 1.73483 50.4248C3.43194 51.7092 5.88258 52.5413 8.97715 53.0102L9.27676 51.0328C6.32885 50.5861 4.25678 49.8252 2.9418 48.83C1.67665 47.8725 1.08154 46.6802 1.08154 45.1733H-0.918457ZM9.13695 51.0215C5.44279 50.9846 2.59276 51.4861 0.849556 52.75L2.02349 54.3692C3.20997 53.509 5.48689 52.9851 9.11695 53.0214L9.13695 51.0215ZM0.537349 53.9972L14.5632 82.818L16.3616 81.9428L2.3357 53.122L0.537349 53.9972ZM16.429 82.1239C15.9584 80.3503 15.73 79.024 15.73 78.0957H13.73C13.73 79.2914 14.0142 80.8216 14.4958 82.6368L16.429 82.1239ZM15.73 78.0957C15.73 77.2768 15.9002 76.8937 16.0166 76.7514L14.4687 75.4849C13.926 76.1482 13.73 77.0836 13.73 78.0957H15.73ZM15.9812 76.7924C16.5556 76.1633 17.3678 75.7435 18.5786 75.6504L18.4253 73.6563C16.7797 73.7828 15.4678 74.3885 14.5042 75.4439L15.9812 76.7924ZM18.5898 75.6495C19.043 75.6095 19.8271 75.6947 21.0184 75.9824C22.1852 76.2642 23.6602 76.719 25.4562 77.3539L26.1229 75.4683C24.2934 74.8215 22.7472 74.3425 21.4879 74.0383C20.2529 73.7401 19.206 73.5873 18.4141 73.6572L18.5898 75.6495ZM25.4445 77.3497L32.9152 80.0963L33.6053 78.2191L26.1346 75.4726L25.4445 77.3497ZM32.9473 80.1075C36.2835 81.2069 39.4095 81.5662 42.3062 81.1356L42.0121 79.1574C39.4889 79.5324 36.6824 79.2326 33.5732 78.208L32.9473 80.1075ZM42.3043 81.1359C45.36 80.6877 48.1917 78.8681 50.8459 75.9486L49.366 74.6032C46.8932 77.3233 44.4516 78.7996 42.0141 79.1571L42.3043 81.1359ZM49.7897 76.2246L52.8659 77.25L53.4984 75.3526L50.4222 74.3272L49.7897 76.2246ZM54.1649 76.4859L57.6806 57.7725L55.7149 57.4033L52.1993 76.1166L54.1649 76.4859ZM56.6978 56.5879H54.5737V58.5879H56.6978V56.5879ZM55.5712 57.6591C55.6072 57.1544 55.647 56.6048 55.647 56.0864H53.647C53.647 56.5202 53.6135 56.996 53.5763 57.5166L55.5712 57.6591ZM55.647 56.0864C55.647 52.8898 54.6325 50.128 52.5824 47.8624C50.5511 45.6176 47.5605 43.9218 43.7023 42.7173L43.1063 44.6264C46.7554 45.7657 49.3861 47.3109 51.0994 49.2043C52.7938 51.0768 53.647 53.3504 53.647 56.0864H55.647ZM44.1668 44.3189L53.3953 33.4424L51.8703 32.1484L42.6418 43.0249L44.1668 44.3189ZM53.2938 32.045L49.3021 28.5293L47.9802 30.0302L51.9719 33.5459L53.2938 32.045ZM13.8191 42.9563C15.5731 43.6364 18.2159 44.8299 21.7243 46.5476L22.6038 44.7513C19.0809 43.0266 16.3771 41.8031 14.5422 41.0916L13.8191 42.9563ZM21.9782 44.6668L17.9132 45.4359L18.285 47.401L22.35 46.632L21.9782 44.6668ZM17.903 45.4379C15.7312 45.8722 14.0476 46.0776 12.8623 46.0776V48.0776C14.2405 48.0776 16.0725 47.8436 18.2952 47.399L17.903 45.4379ZM12.8623 46.0776C11.9071 46.0776 11.3485 45.9505 11.0625 45.8036C10.9345 45.7379 10.8955 45.6856 10.8854 45.6699C10.8783 45.659 10.8594 45.6282 10.8594 45.5396H8.85938C8.85938 45.9636 8.96406 46.3815 9.2053 46.755C9.44355 47.1239 9.77762 47.392 10.1486 47.5826C10.8605 47.9484 11.8034 48.0776 12.8623 48.0776V46.0776ZM10.8594 45.5396C10.8594 45.4519 10.8881 45.286 10.9912 44.9769L9.0938 44.3444C8.97711 44.6945 8.85938 45.1145 8.85938 45.5396H10.8594ZM10.9697 45.0351C11.6997 43.2275 12.4439 42.8042 13.0454 42.8042V40.8042C11.1567 40.8042 9.92335 42.2852 9.11524 44.2862L10.9697 45.0351ZM13.0454 42.8042C13.2716 42.8042 13.5211 42.8482 13.8389 42.9637L14.5224 41.0841C14.0346 40.9067 13.5517 40.8042 13.0454 40.8042V42.8042ZM25.9175 54.5554C30.3007 54.1536 33.7873 53.9364 36.4234 53.9003L36.396 51.9005C33.6854 51.9376 30.1407 52.1599 25.7349 52.5637L25.9175 54.5554ZM36.4258 53.9003C37.4719 53.8834 38.0677 54.0694 38.3809 54.2942C38.6321 54.4745 38.8154 54.7601 38.8154 55.354H40.8154C40.8154 54.2634 40.4311 53.3038 39.5471 52.6693C38.725 52.0793 37.618 51.8808 36.3935 51.9005L36.4258 53.9003ZM38.8154 55.354C38.8154 55.5808 38.7865 55.8518 38.7483 56.1957L40.7361 56.4166C40.7711 56.1013 40.8154 55.7132 40.8154 55.354H38.8154ZM38.7616 56.11C38.6111 56.8626 38.4065 57.3066 38.2197 57.54C38.0683 57.7292 37.9492 57.7659 37.8017 57.7605L37.7276 59.7591C38.5689 59.7902 39.2737 59.4241 39.7815 58.7894C40.2539 58.1988 40.5437 57.3976 40.7228 56.5023L38.7616 56.11ZM37.7646 57.7598C37.594 57.7598 37.3216 57.6949 36.8569 57.4625L35.9625 59.2514C36.5231 59.5317 37.1296 59.7598 37.7646 59.7598V57.7598ZM36.8766 57.4727C33.5492 55.7155 29.4963 54.0819 24.6534 52.6032L24.0693 54.516C28.8211 55.9669 32.7516 57.556 35.9427 59.2412L36.8766 57.4727ZM24.3613 54.5596H25.8262V52.5596H24.3613V54.5596ZM94.0908 13.2397L94.7226 12.4646L93.8306 11.7375L93.2351 12.7223L94.0908 13.2397ZM83.6904 23.7866L82.7881 23.3555L81.416 26.2273L84.184 24.6563L83.6904 23.7866ZM86.8398 17.1948L87.7421 17.6259L88.847 15.3134L86.4679 16.2666L86.8398 17.1948ZM63.9883 26.3501L63.6164 25.4218L63.1328 25.6156L63.0144 26.1229L63.9883 26.3501ZM62.8896 30.5249L62.905 31.5248L63.6495 31.5133L63.852 30.7969L62.8896 30.5249ZM43.7734 28.1445L44.0671 27.1886L43.1885 26.9187L42.8456 27.7714L43.7734 28.1445ZM40.9902 35.0659L40.0624 34.6928L39.7688 35.4231L40.4097 35.8801L40.9902 35.0659ZM52.4526 45.4297L51.6979 46.0857L52.4403 46.9399L53.1966 46.098L52.4526 45.4297ZM56.3345 41.1084L56.3197 40.1085L55.8826 40.115L55.5906 40.4401L56.3345 41.1084ZM61.2783 41.0352L62.2744 41.1232L62.3721 40.0188L61.2635 40.0353L61.2783 41.0352ZM60.6924 62.312L61.6918 62.2775L61.6916 62.2728L60.6924 62.312ZM65.1602 75.5688L64.373 76.1856L64.3741 76.187L65.1602 75.5688ZM77.3184 82.0142L77.2189 83.0092L77.226 83.0099L77.3184 82.0142ZM89.8428 81.7212L89.9565 82.7148L89.969 82.7132L89.8428 81.7212ZM112.401 87.1777L111.688 87.8781L112.327 88.5298L113.034 87.9521L112.401 87.1777ZM115.404 84.7241L116.037 85.4985L116.879 84.8108L116.123 84.0292L115.404 84.7241ZM86.9497 55.2808L87.6688 54.5858L86.3717 53.2437L85.9728 55.0671L86.9497 55.2808ZM81.1636 59.9683L80.6879 59.0887L80.6847 59.0904L81.1636 59.9683ZM72.7407 61.5063L72.3117 62.4096L72.3231 62.415L72.3346 62.4202L72.7407 61.5063ZM76.9155 38.8013L76.5565 37.8679L76.2021 38.0042L76.0275 38.3414L76.9155 38.8013ZM78.8198 38.0688L78.4967 37.1225L78.4786 37.1287L78.4608 37.1355L78.8198 38.0688ZM80.3213 37.5562L81.1647 38.0934L82.6965 35.6884L79.9981 36.6098L80.3213 37.5562ZM74.3154 58.3936L73.3155 58.3841L73.3005 59.9671L74.7364 59.3006L74.3154 58.3936ZM96.2515 48.2129L96.6724 49.12L96.1221 47.2213L96.2515 48.2129ZM89.5132 44.7339L88.5147 44.6781L88.5142 44.6892L89.5132 44.7339ZM103.795 21.1499L104.503 21.857L105.285 21.0742L104.427 20.3748L103.795 21.1499ZM93.2351 12.7223C90.4521 17.3249 87.0895 20.7076 83.1968 22.9169L84.184 24.6563C88.4213 22.2514 92.0166 18.6028 94.9466 13.7572L93.2351 12.7223ZM84.5927 24.2177L87.7421 17.6259L85.9375 16.7637L82.7881 23.3555L84.5927 24.2177ZM86.4679 16.2666L63.6164 25.4218L64.3602 27.2784L87.2117 18.1231L86.4679 16.2666ZM63.0144 26.1229C62.7629 27.2007 62.4012 28.5761 61.9273 30.2529L63.852 30.7969C64.3302 29.1046 64.7009 27.6967 64.9621 26.5773L63.0144 26.1229ZM62.8743 29.525C55.8116 29.6337 49.5477 28.8722 44.0671 27.1886L43.4798 29.1004C49.2052 30.8592 55.6855 31.6359 62.905 31.5248L62.8743 29.525ZM42.8456 27.7714L40.0624 34.6928L41.918 35.439L44.7012 28.5176L42.8456 27.7714ZM40.4097 35.8801C44.5609 38.8401 48.3468 42.2301 51.6979 46.0857L53.2074 44.7737C49.747 40.7923 45.8425 37.2976 41.5708 34.2517L40.4097 35.8801ZM53.1966 46.098L57.0784 41.7767L55.5906 40.4401L51.7087 44.7614L53.1966 46.098ZM56.3493 42.1083L61.2931 42.035L61.2635 40.0353L56.3197 40.1085L56.3493 42.1083ZM60.2822 40.9471C59.8035 46.3597 59.5825 51.5893 59.5825 56.5991H61.5825C61.5825 51.648 61.801 46.4772 62.2744 41.1232L60.2822 40.9471ZM59.5825 56.5991C59.5825 58.5526 59.6194 60.47 59.6932 62.3512L61.6916 62.2728C61.6189 60.4187 61.5825 58.5275 61.5825 56.5991H59.5825ZM59.693 62.3465C59.8822 67.8342 61.4396 72.4417 64.373 76.1856L65.9473 74.9521C63.3143 71.5915 61.8688 67.41 61.6918 62.2775L59.693 62.3465ZM64.3741 76.187C67.5211 80.1887 71.8423 82.4715 77.2189 83.0092L77.4179 81.0191C72.5405 80.5314 68.7318 78.4929 65.9462 74.9507L64.3741 76.187ZM77.226 83.0099C80.8609 83.3471 85.1064 83.2701 89.9565 82.7147L89.729 80.7277C84.9844 81.271 80.8803 81.3404 77.4107 81.0184L77.226 83.0099ZM89.969 82.7132C91.9394 82.4624 93.8381 82.355 95.5923 82.355V80.355C93.7576 80.355 91.7745 80.4673 89.7165 80.7292L89.969 82.7132ZM95.5923 82.355C102.821 82.355 108.127 84.2489 111.688 87.8781L113.115 86.4774C109.059 82.3429 103.159 80.355 95.5923 80.355V82.355ZM113.034 87.9521L116.037 85.4985L114.772 83.9497L111.769 86.4034L113.034 87.9521ZM116.123 84.0292L87.6688 54.5858L86.2306 55.9757L114.685 85.4191L116.123 84.0292ZM85.9728 55.0671C85.9235 55.2926 85.6231 55.7922 84.6767 56.5592C83.7793 57.2865 82.4574 58.1317 80.6879 59.0887L81.6393 60.8479C83.4586 59.8639 84.9016 58.9513 85.936 58.113C86.9213 57.3145 87.7196 56.4408 87.9266 55.4945L85.9728 55.0671ZM80.6847 59.0904C78.3336 60.3728 76.4557 60.9458 74.9746 60.9458V62.9458C76.936 62.9458 79.1595 62.2005 81.6424 60.8462L80.6847 59.0904ZM74.9746 60.9458C74.2524 60.9458 73.6612 60.8211 73.1469 60.5925L72.3346 62.4202C73.1386 62.7775 74.0123 62.9458 74.9746 62.9458V60.9458ZM73.1698 60.6031C72.1876 60.1365 71.5435 59.1342 71.5435 57.0752H69.5435C69.5435 59.5572 70.3641 61.4845 72.3117 62.4096L73.1698 60.6031ZM71.5435 57.0752C71.5435 53.3498 73.556 47.4633 77.8035 39.2611L76.0275 38.3414C71.779 46.5455 69.5435 52.8172 69.5435 57.0752H71.5435ZM77.2745 39.7346L79.1788 39.0022L78.4608 37.1355L76.5565 37.8679L77.2745 39.7346ZM79.143 39.0152L80.6444 38.5025L79.9981 36.6098L78.4967 37.1225L79.143 39.0152ZM79.4778 37.019C75.4534 43.3376 73.3904 50.4803 73.3155 58.3841L75.3154 58.403C75.387 50.8527 77.3522 44.0794 81.1647 38.0934L79.4778 37.019ZM74.7364 59.3006L96.6724 49.12L95.8305 47.3058L73.8945 57.4865L74.7364 59.3006ZM96.1221 47.2213C95.2916 47.3296 94.6106 47.396 93.981 47.396V49.396C94.7429 49.396 95.5267 49.3159 96.3808 49.2045L96.1221 47.2213ZM93.981 47.396C92.5212 47.396 91.6538 47.1068 91.1731 46.7122C90.7432 46.3592 90.4669 45.7906 90.5122 44.7786L88.5142 44.6892C88.4496 46.1308 88.8508 47.3933 89.904 48.2579C90.9065 49.0809 92.3279 49.396 93.981 49.396V47.396ZM90.5116 44.7897C90.8559 38.6274 95.3764 30.9832 104.503 21.857L103.088 20.4428C93.9039 29.6272 88.9029 37.73 88.5147 44.6781L90.5116 44.7897ZM104.427 20.3748L94.7226 12.4646L93.459 14.0149L103.164 21.925L104.427 20.3748ZM126.247 17.4878L127.024 16.8584L125.273 17.7127L126.247 17.4878ZM124.416 26.4966L125.331 26.9002L125.332 26.8986L124.416 26.4966ZM119.069 33.3813L119.712 34.1479L119.717 34.143L119.069 33.3813ZM111.818 38.4351L112.358 39.2772L112.359 39.2765L111.818 38.4351ZM104.714 43.6719L105.4 44.3998L105.403 44.3964L104.714 43.6719ZM99.3672 50.7031L99.3002 51.7009L99.9973 51.7477L100.281 51.1093L99.3672 50.7031ZM94.46 50.3735L94.527 49.3758L93.6868 49.3194L93.4882 50.1377L94.46 50.3735ZM92.3359 59.126L91.3641 58.8901L91.0875 60.0299L92.2567 60.1228L92.3359 59.126ZM97.8657 59.5654L98.8656 59.5823L98.8814 58.643L97.9449 58.5686L97.8657 59.5654ZM105.227 76.3379L104.547 77.0713L104.547 77.0717L105.227 76.3379ZM122.438 82.7832L122.483 83.7822L122.491 83.7818L122.438 82.7832ZM138.222 82.8931L138.058 83.8795L138.069 83.8814L138.081 83.883L138.222 82.8931ZM144.484 86.0059L143.712 86.641L144.295 87.3498L145.051 86.8299L144.484 86.0059ZM146.828 84.3945L147.395 85.2186L148.209 84.6589L147.659 83.8381L146.828 84.3945ZM130.788 60.4443L131.619 59.8879L131.003 58.9681L130.15 59.6741L130.788 60.4443ZM112.99 61.1401L113.092 60.1453L110.122 59.8412L112.31 61.8729L112.99 61.1401ZM123.72 62.2388L123.618 63.2336L123.68 63.2399L123.741 63.2385L123.72 62.2388ZM127.712 59.9316L128.566 60.4522L128.613 60.374L128.646 60.2885L127.712 59.9316ZM138.259 32.3193L139.193 32.6762L139.399 32.1378L139.036 31.69L138.259 32.3193ZM121.853 50.0073L122.772 50.4013L122.777 50.3891L121.853 50.0073ZM118.886 52.5342L118.815 53.5316L118.906 53.5382L118.997 53.5281L118.886 52.5342ZM111.745 52.0215L110.762 51.8361L110.554 52.9386L111.674 53.0189L111.745 52.0215ZM120.095 44.8804L119.618 44.0013L119.618 44.0013L120.095 44.8804ZM126.467 38.8379L127.391 39.2197L125.575 38.3852L126.467 38.8379ZM125.273 17.7127C125.358 18.0835 125.394 18.5477 125.394 19.0625H127.394C127.394 18.4787 127.356 17.8443 127.221 17.2629L125.273 17.7127ZM125.394 19.0625C125.394 20.8021 124.796 23.1442 123.5 26.0946L125.332 26.8986C126.673 23.8431 127.394 21.2047 127.394 19.0625H125.394ZM123.501 26.0929C122.474 28.4215 120.782 30.6117 118.421 32.6197L119.717 34.143C122.264 31.9762 124.161 29.5521 125.331 26.9002L123.501 26.0929ZM118.427 32.6148C117.125 33.7055 114.756 35.3605 111.278 37.5936L112.359 39.2765C115.839 37.0418 118.303 35.3277 119.712 34.1479L118.427 32.6148ZM111.279 37.593C108.006 39.6894 105.597 41.4517 104.025 42.9473L105.403 44.3964C106.834 43.0356 109.112 41.3555 112.358 39.2772L111.279 37.593ZM104.028 42.944C101.441 45.3808 99.55 47.8296 98.4534 50.297L100.281 51.1093C101.235 48.9624 102.933 46.7237 105.4 44.3998L104.028 42.944ZM99.4342 49.7054L94.527 49.3758L94.3929 51.3713L99.3002 51.7009L99.4342 49.7054ZM93.4882 50.1377L91.3641 58.8901L93.3077 59.3618L95.4318 50.6094L93.4882 50.1377ZM92.2567 60.1228L97.7865 60.5623L97.9449 58.5686L92.4152 58.1291L92.2567 60.1228ZM96.8659 59.5486C96.751 66.366 99.3322 72.2373 104.547 77.0713L105.906 75.6045C101.087 71.1367 98.7608 65.802 98.8656 59.5823L96.8659 59.5486ZM104.547 77.0717C109.679 81.8235 115.687 84.0877 122.483 83.7822L122.394 81.7842C116.153 82.0647 110.662 80.0076 105.906 75.6041L104.547 77.0717ZM122.491 83.7818C125.954 83.5995 128.94 83.5269 131.374 83.5269V81.5269C128.901 81.5269 125.881 81.6007 122.386 81.7846L122.491 83.7818ZM131.374 83.5269C134.407 83.5269 136.607 83.6376 138.058 83.8795L138.387 81.9067C136.761 81.6358 134.42 81.5269 131.374 81.5269V83.5269ZM138.081 83.883C140.726 84.261 142.557 85.2363 143.712 86.641L145.257 85.3708C143.702 83.4795 141.358 82.3308 138.364 81.9031L138.081 83.883ZM145.051 86.8299L147.395 85.2186L146.262 83.5705L143.918 85.1818L145.051 86.8299ZM147.659 83.8381L131.619 59.8879L129.957 61.0008L145.997 84.951L147.659 83.8381ZM130.15 59.6741C126.843 62.4126 123.84 63.6924 121.083 63.6924V65.6924C124.48 65.6924 127.922 64.1157 131.426 61.2146L130.15 59.6741ZM121.083 63.6924C118.568 63.6924 116.091 62.6548 113.671 60.4073L112.31 61.8729C115.016 64.3862 117.959 65.6924 121.083 65.6924V63.6924ZM112.888 62.1349L123.618 63.2336L123.822 61.244L113.092 60.1453L112.888 62.1349ZM123.741 63.2385C125.804 63.1947 127.472 62.2452 128.566 60.4522L126.858 59.411C126.12 60.621 125.079 61.2096 123.699 61.239L123.741 63.2385ZM128.646 60.2885L139.193 32.6762L137.325 31.9625L126.778 59.5748L128.646 60.2885ZM139.036 31.69L127.024 16.8584L125.47 18.1172L137.482 32.9487L139.036 31.69ZM120.933 49.6134C120.373 50.9213 119.639 51.4444 118.776 51.5403L118.997 53.5281C120.77 53.331 122.014 52.1695 122.772 50.4012L120.933 49.6134ZM118.958 51.5367L111.817 51.0241L111.674 53.0189L118.815 53.5316L118.958 51.5367ZM112.728 52.2069C112.845 51.584 113.409 50.6932 114.757 49.5405C116.073 48.4151 118 47.1536 120.571 45.7594L119.618 44.0013C116.989 45.427 114.925 46.7656 113.457 48.0206C112.022 49.2482 111.011 50.518 110.762 51.8361L112.728 52.2069ZM120.571 45.7595C123.737 44.0432 126.034 41.8986 127.358 39.2906L125.575 38.3852C124.482 40.5379 122.532 42.4217 119.618 44.0013L120.571 45.7595ZM125.543 38.4561L120.928 49.6255L122.777 50.3891L127.391 39.2197L125.543 38.4561ZM167.686 37.8125L167.653 36.8131L167.525 36.8173L167.402 36.8536L167.686 37.8125ZM132.566 39.3506L133.086 38.496L132.342 38.0442L131.792 38.7181L132.566 39.3506ZM130.772 41.5479L129.997 40.9153L129.433 41.6067L130.056 42.2459L130.772 41.5479ZM140.733 51.7651L140.803 52.7627L142.954 52.6112L141.449 51.0671L140.733 51.7651ZM138.279 69.9658L137.467 70.5493L137.467 70.5495L138.279 69.9658ZM161.68 80.293L162.16 81.1702L162.163 81.1688L161.68 80.293ZM168.968 76.6309L168.637 75.687L168.591 75.7032L168.547 75.7239L168.968 76.6309ZM172.044 80.5127L171.059 80.3389L172.944 80.9482L172.044 80.5127ZM184.019 55.7568L184.919 56.1923L185.575 54.8373L184.072 54.7582L184.019 55.7568ZM174.754 56.2695L173.897 55.7541L172.775 57.6192L174.921 57.2555L174.754 56.2695ZM164.903 49.3115L164.738 48.3251L164.736 48.3255L164.903 49.3115ZM167.869 50.7764L168.74 51.2677L168.747 51.2561L168.753 51.2443L167.869 50.7764ZM165.782 53.7427L165.521 54.708L166.059 54.8535L166.466 54.4722L165.782 53.7427ZM155.271 51.9116L154.947 50.9658L155.234 52.9109L155.271 51.9116ZM157.176 61.6528L157.335 60.6655L157.333 60.6653L157.176 61.6528ZM160.362 62.1655L160.948 62.976L162.904 61.5618L160.521 61.1782L160.362 62.1655ZM146.775 63.2275L147.67 62.7803L147.645 62.7308L147.615 62.6843L146.775 63.2275ZM167.402 36.8536C158.036 39.6235 150.339 40.9873 144.285 40.9873V42.9873C150.609 42.9873 158.513 41.5679 167.97 38.7714L167.402 36.8536ZM144.285 40.9873C139.447 40.9873 135.767 40.1252 133.086 38.496L132.047 40.2052C135.152 42.0916 139.236 42.9873 144.285 42.9873V40.9873ZM131.792 38.7181L129.997 40.9153L131.547 42.1804L133.341 39.9831L131.792 38.7181ZM130.056 42.2459L140.017 52.4632L141.449 51.0671L131.488 40.8498L130.056 42.2459ZM140.663 50.7676C137.969 50.9573 135.787 51.5904 134.262 52.7986C132.688 54.0456 131.933 55.8096 131.933 57.9541H133.933C133.933 56.3266 134.478 55.1792 135.504 54.3663C136.579 53.5146 138.297 52.9392 140.803 52.7627L140.663 50.7676ZM131.933 57.9541C131.933 61.3655 133.896 65.5789 137.467 70.5493L139.091 69.3823C135.558 64.465 133.933 60.6951 133.933 57.9541H131.933ZM137.467 70.5495C143.241 78.5802 149.287 82.9043 155.601 82.9043V80.9043C150.27 80.9043 144.744 77.245 139.091 69.3821L137.467 70.5495ZM155.601 82.9043C157.869 82.9043 160.084 82.3064 162.16 81.1702L161.2 79.4157C159.395 80.4035 157.508 80.9043 155.601 80.9043V82.9043ZM162.163 81.1688C163.936 80.1918 166.332 78.957 169.389 77.5379L168.547 75.7239C165.451 77.1612 163.013 78.4166 161.198 79.4171L162.163 81.1688ZM169.298 77.5747C170.001 77.3288 170.495 77.228 170.799 77.228V75.228C170.151 75.228 169.4 75.4202 168.637 75.687L169.298 77.5747ZM170.799 77.228C170.893 77.228 170.926 77.2467 170.932 77.2501C170.937 77.253 170.967 77.269 171.009 77.341C171.112 77.5151 171.227 77.9051 171.227 78.645H173.227C173.227 77.7736 173.104 76.9551 172.731 76.3235C172.309 75.6097 171.621 75.228 170.799 75.228V77.228ZM171.227 78.645C171.227 79.1907 171.163 79.7519 171.059 80.3389L173.029 80.6865C173.145 80.0284 173.227 79.3445 173.227 78.645H171.227ZM172.944 80.9482L184.919 56.1923L183.119 55.3214L171.144 80.0772L172.944 80.9482ZM184.072 54.7582C183.345 54.72 182.586 54.7202 181.895 54.7202V56.7202C182.596 56.7202 183.302 56.7205 183.966 56.7555L184.072 54.7582ZM181.895 54.7202C179.249 54.7202 176.812 54.9065 174.587 55.2836L174.921 57.2555C177.017 56.9002 179.341 56.7202 181.895 56.7202V54.7202ZM175.611 56.785C178.561 51.8803 180.148 47.8015 180.148 44.5508H178.148C178.148 47.2327 176.806 50.9176 173.897 55.7541L175.611 56.785ZM180.148 44.5508C180.148 41.8486 179.036 39.7552 176.794 38.438C174.641 37.1732 171.547 36.6826 167.653 36.8131L167.72 38.8119C171.479 38.686 174.116 39.1842 175.781 40.1624C177.357 41.0883 178.148 42.4922 178.148 44.5508H180.148ZM165.067 50.2979C166.178 50.1128 166.903 50.0186 167.356 50.0186V48.0186C166.711 48.0186 165.825 48.144 164.738 48.3251L165.067 50.2979ZM167.356 50.0186C167.489 50.0186 167.581 50.0275 167.639 50.0376C167.7 50.0482 167.703 50.0563 167.673 50.0409C167.639 50.0235 167.556 49.9717 167.484 49.8616C167.408 49.7456 167.382 49.6237 167.382 49.5312H169.382C169.382 49.2741 169.315 49.0056 169.155 48.7626C168.999 48.5254 168.79 48.3661 168.587 48.2617C168.207 48.0667 167.761 48.0186 167.356 48.0186V50.0186ZM167.382 49.5312C167.382 49.4361 167.401 49.3911 167.388 49.4361C167.379 49.4664 167.36 49.522 167.325 49.6073C167.255 49.7771 167.142 50.0117 166.985 50.3085L168.753 51.2443C168.925 50.9184 169.07 50.6221 169.173 50.3708C169.225 50.2454 169.272 50.1179 169.308 49.9949C169.34 49.8866 169.382 49.718 169.382 49.5312H167.382ZM166.998 50.285C166.202 51.6969 165.567 52.5733 165.098 53.0131L166.466 54.4722C167.168 53.8134 167.925 52.7123 168.74 51.2677L166.998 50.285ZM166.043 52.7773C161.937 51.6676 158.341 51.026 155.309 50.9123L155.234 52.9109C158.061 53.0169 161.497 53.6205 165.521 54.708L166.043 52.7773ZM155.596 52.8574C159.192 51.6224 162.322 50.7613 165.069 50.2976L164.736 48.3255C161.844 48.8139 158.602 49.7106 154.947 50.9658L155.596 52.8574ZM157.017 62.6401L160.203 63.1528L160.521 61.1782L157.335 60.6655L157.017 62.6401ZM159.776 61.3551C156.106 64.0077 153.325 65.1938 151.316 65.1938V67.1938C153.996 67.1938 157.22 65.6701 160.948 62.976L159.776 61.3551ZM151.316 65.1938C150.48 65.1938 149.786 64.9909 149.207 64.6141C148.624 64.2346 148.101 63.6424 147.67 62.7803L145.881 63.6748C146.439 64.7902 147.179 65.6811 148.116 66.2905C149.057 66.9024 150.139 67.1938 151.316 67.1938V65.1938ZM147.615 62.6843C147.434 62.4046 147.311 62.1748 147.236 61.9949C147.156 61.8052 147.153 61.7243 147.153 61.7261H145.153C145.153 62.4083 145.526 63.1367 145.936 63.7708L147.615 62.6843ZM147.153 61.7261C147.153 61.7707 147.134 61.8377 147.094 61.8876C147.066 61.9225 147.068 61.8986 147.174 61.8533C147.404 61.7548 147.865 61.6641 148.643 61.6641V59.6641C147.774 59.6641 146.989 59.7564 146.386 60.015C146.075 60.1482 145.763 60.3463 145.526 60.6456C145.277 60.9599 145.153 61.3336 145.153 61.7261H147.153ZM148.643 61.6641C150.091 61.6641 152.873 61.9801 157.018 62.6404L157.333 60.6653C153.202 60.0072 150.271 59.6641 148.643 59.6641V61.6641ZM195.553 22.1753L196.042 21.3031L194.84 20.6288L194.572 21.981L195.553 22.1753ZM191.159 36.0181L190.229 35.6488L191.974 36.5968L191.159 36.0181ZM196.029 30.0122L195.441 29.2034L195.435 29.208L196.029 30.0122ZM198.263 30.2319L199.121 29.7174L199.081 29.6511L199.031 29.5917L198.263 30.2319ZM195.517 40.083L196.436 40.4763L196.438 40.4707L195.517 40.083ZM187.79 54.6216L186.984 54.0287L186.984 54.0292L187.79 54.6216ZM175.924 66.0474L175.323 65.248L174.195 66.0963L175.37 66.8794L175.924 66.0474ZM178.451 67.7319L179.11 68.4845L180.093 67.6244L179.006 66.8999L178.451 67.7319ZM172.848 73.1152L172.128 72.4211L171.517 73.0547L172.068 73.7412L172.848 73.1152ZM175.082 75.8984L175.872 75.2852L175.867 75.2788L175.862 75.2725L175.082 75.8984ZM177.243 78.6816L176.453 79.2949L176.958 79.9459L177.694 79.5741L177.243 78.6816ZM204.232 74.7632L204.517 73.8045L204.516 73.8042L204.232 74.7632ZM221.664 82.6733L221.036 83.4519L221.808 84.0736L222.437 83.3083L221.664 82.6733ZM237.375 63.5571L238.147 64.1921L238.675 63.5493L238.139 62.913L237.375 63.5571ZM231.698 56.416L232.534 55.8668L232.529 55.8589L231.698 56.416ZM228.329 48.0298L227.335 48.1378L227.335 48.1387L228.329 48.0298ZM229.831 43.7451L230.538 44.4522L231.203 43.7873L230.58 43.0828L229.831 43.7451ZM227.597 41.2183L228.346 40.5559L227.705 39.831L226.959 40.4476L227.597 41.2183ZM208.554 56.9653L207.916 56.1947L205.59 58.1186L208.605 57.964L208.554 56.9653ZM213.388 62.4951L213.491 63.4898L214.899 63.3441L214.291 62.0655L213.388 62.4951ZM207.455 61.6162L207.689 60.6439L207.682 60.6422L207.455 61.6162ZM198.52 61.4331L197.52 61.4617L197.553 62.6279L198.701 62.4166L198.52 61.4331ZM203.793 46.0889L204.698 46.5134L204.7 46.511L203.793 46.0889ZM211.813 31.2939L212.623 31.8809L213.282 30.9713L212.302 30.4217L211.813 31.2939ZM194.572 21.981C193.856 25.596 192.415 30.1472 190.229 35.6488L192.088 36.3873C194.296 30.8293 195.785 26.152 196.534 22.3695L194.572 21.981ZM191.974 36.5968C193.177 34.9025 194.17 33.5761 194.961 32.6018C195.772 31.6031 196.315 31.0443 196.624 30.8164L195.435 29.208C194.901 29.6026 194.218 30.3439 193.408 31.3411C192.579 32.3626 191.558 33.7279 190.343 35.4393L191.974 36.5968ZM196.617 30.8209C196.957 30.574 197.076 30.5728 197.091 30.5728V28.5728C196.448 28.5728 195.907 28.8645 195.441 29.2035L196.617 30.8209ZM197.091 30.5728C197.101 30.5728 197.247 30.5743 197.495 30.8721L199.031 29.5917C198.547 29.0107 197.888 28.5728 197.091 28.5728V30.5728ZM197.406 30.7464C197.4 30.7369 197.446 30.8037 197.446 31.0376H199.446C199.446 30.5391 199.346 30.0931 199.121 29.7174L197.406 30.7464ZM197.446 31.0376C197.446 31.5801 197.246 32.5566 196.758 34.0563C196.281 35.5244 195.56 37.3999 194.595 39.6953L196.438 40.4707C197.414 38.1519 198.158 36.2187 198.66 34.6748C199.152 33.1624 199.446 31.9233 199.446 31.0376H197.446ZM194.597 39.6897C191.898 45.9993 189.37 50.7878 186.984 54.0287L188.595 55.2145C191.116 51.7903 193.715 46.8376 196.436 40.4763L194.597 39.6897ZM186.984 54.0292C184.313 57.6619 180.437 61.4036 175.323 65.248L176.525 66.8467C181.739 62.9274 185.773 59.052 188.595 55.214L186.984 54.0292ZM175.37 66.8794L177.896 68.564L179.006 66.8999L176.479 65.2153L175.37 66.8794ZM177.793 66.9794C176.01 68.5396 174.121 70.3542 172.128 72.4211L173.568 73.8094C175.53 71.7747 177.377 70.0005 179.11 68.4845L177.793 66.9794ZM172.068 73.7412L174.302 76.5244L175.862 75.2725L173.628 72.4893L172.068 73.7412ZM174.292 76.5117L176.453 79.2949L178.033 78.0684L175.872 75.2852L174.292 76.5117ZM177.694 79.5741C184.33 76.22 190.474 74.5913 196.103 74.5913V72.5913C190.086 72.5913 183.632 74.3318 176.792 77.7892L177.694 79.5741ZM196.103 74.5913C198.826 74.5913 201.44 74.9801 203.949 75.7221L204.516 73.8042C201.824 73.0082 199.019 72.5913 196.103 72.5913V74.5913ZM203.948 75.7218C211.929 78.0907 217.601 80.6826 221.036 83.4519L222.292 81.8948C218.549 78.8779 212.576 76.1964 204.517 73.8045L203.948 75.7218ZM222.437 83.3083L238.147 64.1921L236.602 62.9222L220.891 82.0384L222.437 83.3083ZM238.139 62.913C235.201 59.4231 233.337 57.0896 232.534 55.8668L230.863 56.9652C231.744 58.3059 233.689 60.7332 236.61 64.2013L238.139 62.913ZM232.529 55.8589C230.651 53.0608 229.594 50.3928 229.323 47.9208L227.335 48.1387C227.65 51.0135 228.863 53.9851 230.868 56.9731L232.529 55.8589ZM229.323 47.9217C229.173 46.5389 229.58 45.4103 230.538 44.4522L229.123 43.038C227.738 44.4237 227.119 46.1515 227.335 48.1378L229.323 47.9217ZM230.58 43.0828L228.346 40.5559L226.847 41.8806L229.081 44.4075L230.58 43.0828ZM226.959 40.4476L207.916 56.1947L209.191 57.736L228.234 41.9889L226.959 40.4476ZM208.605 57.964C208.852 57.9513 209.339 58.1 210.081 58.947C210.799 59.7665 211.604 61.0725 212.485 62.9247L214.291 62.0655C213.377 60.1457 212.48 58.6503 211.586 57.6295C210.716 56.6363 209.683 55.9061 208.502 55.9666L208.605 57.964ZM213.285 61.5004C212.88 61.5423 212.219 61.5115 211.255 61.3686C210.306 61.228 209.119 60.9879 207.689 60.6439L207.221 62.5885C208.684 62.9403 209.933 63.1946 210.961 63.347C211.974 63.4971 212.833 63.5578 213.491 63.4898L213.285 61.5004ZM207.682 60.6422C206.031 60.2584 204.344 60.0669 202.621 60.0669V62.0669C204.194 62.0669 205.73 62.2416 207.229 62.5902L207.682 60.6422ZM202.621 60.0669C201.211 60.0669 199.795 60.1813 198.338 60.4497L198.701 62.4166C200.027 62.1722 201.321 62.0669 202.621 62.0669V60.0669ZM199.519 61.4045C199.488 60.3148 199.855 58.5375 200.729 55.9947C201.591 53.4829 202.912 50.3235 204.698 46.5134L202.888 45.6643C201.085 49.508 199.732 52.739 198.837 55.345C197.953 57.92 197.478 59.9879 197.52 61.4617L199.519 61.4045ZM204.7 46.511C207.919 39.5972 210.559 34.7278 212.623 31.8809L211.003 30.707C208.819 33.7195 206.113 38.7378 202.886 45.6668L204.7 46.511ZM212.302 30.4217L196.042 21.3031L195.064 23.0475L211.324 32.1661L212.302 30.4217ZM269.479 13.2397L270.111 12.4646L269.219 11.7375L268.624 12.7223L269.479 13.2397ZM259.079 23.7866L258.177 23.3555L256.805 26.2273L259.573 24.6563L259.079 23.7866ZM262.229 17.1948L263.131 17.6259L264.236 15.3134L261.857 16.2666L262.229 17.1948ZM239.377 26.3501L239.005 25.4218L238.521 25.6156L238.403 26.1229L239.377 26.3501ZM238.278 30.5249L238.294 31.5248L239.038 31.5133L239.241 30.7969L238.278 30.5249ZM219.162 28.1445L219.456 27.1886L218.577 26.9187L218.234 27.7714L219.162 28.1445ZM216.379 35.0659L215.451 34.6928L215.157 35.4231L215.798 35.8801L216.379 35.0659ZM227.841 45.4297L227.087 46.0857L227.829 46.9399L228.585 46.098L227.841 45.4297ZM231.723 41.1084L231.708 40.1085L231.271 40.115L230.979 40.4401L231.723 41.1084ZM236.667 41.0352L237.663 41.1232L237.761 40.0188L236.652 40.0353L236.667 41.0352ZM236.081 62.312L237.08 62.2775L237.08 62.2728L236.081 62.312ZM240.549 75.5688L239.762 76.1856L239.763 76.187L240.549 75.5688ZM252.707 82.0142L252.608 83.0092L252.615 83.0099L252.707 82.0142ZM265.231 81.7212L265.345 82.7148L265.358 82.7132L265.231 81.7212ZM287.79 87.1777L287.076 87.8781L287.716 88.5298L288.423 87.9521L287.79 87.1777ZM290.793 84.7241L291.426 85.4985L292.267 84.8108L291.512 84.0292L290.793 84.7241ZM262.338 55.2808L263.057 54.5858L261.76 53.2437L261.361 55.0671L262.338 55.2808ZM256.552 59.9683L256.077 59.0887L256.073 59.0904L256.552 59.9683ZM248.129 61.5063L247.7 62.4096L247.712 62.415L247.723 62.4202L248.129 61.5063ZM252.304 38.8013L251.945 37.8679L251.591 38.0042L251.416 38.3414L252.304 38.8013ZM254.208 38.0688L253.885 37.1225L253.867 37.1287L253.85 37.1355L254.208 38.0688ZM255.71 37.5562L256.553 38.0934L258.085 35.6884L255.387 36.6098L255.71 37.5562ZM249.704 58.3936L248.704 58.3841L248.689 59.9671L250.125 59.3006L249.704 58.3936ZM271.64 48.2129L272.061 49.12L271.511 47.2213L271.64 48.2129ZM264.902 44.7339L263.903 44.6781L263.903 44.6892L264.902 44.7339ZM279.184 21.1499L279.891 21.857L280.674 21.0742L279.816 20.3748L279.184 21.1499ZM268.624 12.7223C265.841 17.3249 262.478 20.7076 258.585 22.9169L259.573 24.6563C263.81 22.2514 267.405 18.6028 270.335 13.7572L268.624 12.7223ZM259.981 24.2177L263.131 17.6259L261.326 16.7637L258.177 23.3555L259.981 24.2177ZM261.857 16.2666L239.005 25.4218L239.749 27.2784L262.6 18.1231L261.857 16.2666ZM238.403 26.1229C238.152 27.2007 237.79 28.5761 237.316 30.2529L239.241 30.7969C239.719 29.1046 240.09 27.6967 240.351 26.5773L238.403 26.1229ZM238.263 29.525C231.2 29.6337 224.936 28.8722 219.456 27.1886L218.868 29.1004C224.594 30.8592 231.074 31.6359 238.294 31.5248L238.263 29.525ZM218.234 27.7714L215.451 34.6928L217.307 35.439L220.09 28.5176L218.234 27.7714ZM215.798 35.8801C219.95 38.8401 223.735 42.2301 227.087 46.0857L228.596 44.7737C225.136 40.7923 221.231 37.2976 216.959 34.2517L215.798 35.8801ZM228.585 46.098L232.467 41.7767L230.979 40.4401L227.097 44.7614L228.585 46.098ZM231.738 42.1083L236.682 42.035L236.652 40.0353L231.708 40.1085L231.738 42.1083ZM235.671 40.9471C235.192 46.3597 234.971 51.5893 234.971 56.5991H236.971C236.971 51.648 237.19 46.4772 237.663 41.1232L235.671 40.9471ZM234.971 56.5991C234.971 58.5526 235.008 60.47 235.082 62.3512L237.08 62.2728C237.008 60.4187 236.971 58.5275 236.971 56.5991H234.971ZM235.082 62.3465C235.271 67.8342 236.828 72.4417 239.762 76.1856L241.336 74.9521C238.703 71.5915 237.257 67.41 237.08 62.2775L235.082 62.3465ZM239.763 76.187C242.91 80.1887 247.231 82.4715 252.608 83.0092L252.807 81.0191C247.929 80.5314 244.121 78.4929 241.335 74.9507L239.763 76.187ZM252.615 83.0099C256.25 83.3471 260.495 83.2701 265.345 82.7147L265.118 80.7277C260.373 81.271 256.269 81.3404 252.799 81.0184L252.615 83.0099ZM265.358 82.7132C267.328 82.4624 269.227 82.355 270.981 82.355V80.355C269.146 80.355 267.163 80.4673 265.105 80.7292L265.358 82.7132ZM270.981 82.355C278.209 82.355 283.516 84.2489 287.076 87.8781L288.504 86.4774C284.447 82.3429 278.547 80.355 270.981 80.355V82.355ZM288.423 87.9521L291.426 85.4985L290.16 83.9497L287.157 86.4034L288.423 87.9521ZM291.512 84.0292L263.057 54.5858L261.619 55.9757L290.074 85.4191L291.512 84.0292ZM261.361 55.0671C261.312 55.2926 261.012 55.7922 260.065 56.5592C259.168 57.2865 257.846 58.1317 256.077 59.0887L257.028 60.8479C258.847 59.8639 260.29 58.9513 261.325 58.113C262.31 57.3145 263.108 56.4408 263.315 55.4945L261.361 55.0671ZM256.073 59.0904C253.722 60.3728 251.844 60.9458 250.363 60.9458V62.9458C252.325 62.9458 254.548 62.2005 257.031 60.8462L256.073 59.0904ZM250.363 60.9458C249.641 60.9458 249.05 60.8211 248.536 60.5925L247.723 62.4202C248.527 62.7775 249.401 62.9458 250.363 62.9458V60.9458ZM248.558 60.6031C247.576 60.1365 246.932 59.1342 246.932 57.0752H244.932C244.932 59.5572 245.753 61.4845 247.7 62.4096L248.558 60.6031ZM246.932 57.0752C246.932 53.3498 248.945 47.4633 253.192 39.2611L251.416 38.3414C247.168 46.5455 244.932 52.8172 244.932 57.0752H246.932ZM252.663 39.7346L254.567 39.0022L253.85 37.1355L251.945 37.8679L252.663 39.7346ZM254.532 39.0152L256.033 38.5025L255.387 36.6098L253.885 37.1225L254.532 39.0152ZM254.867 37.019C250.842 43.3376 248.779 50.4803 248.704 58.3841L250.704 58.403C250.776 50.8527 252.741 44.0794 256.553 38.0934L254.867 37.019ZM250.125 59.3006L272.061 49.12L271.219 47.3058L249.283 57.4865L250.125 59.3006ZM271.511 47.2213C270.68 47.3296 269.999 47.396 269.37 47.396V49.396C270.132 49.396 270.915 49.3159 271.769 49.2045L271.511 47.2213ZM269.37 47.396C267.91 47.396 267.042 47.1068 266.562 46.7122C266.132 46.3592 265.856 45.7906 265.901 44.7786L263.903 44.6892C263.838 46.1308 264.239 47.3933 265.293 48.2579C266.295 49.0809 267.717 49.396 269.37 49.396V47.396ZM265.9 44.7897C266.245 38.6274 270.765 30.9832 279.891 21.857L278.477 20.4428C269.293 29.6272 264.292 37.73 263.903 44.6781L265.9 44.7897ZM279.816 20.3748L270.111 12.4646L268.848 14.0149L278.552 21.925L279.816 20.3748ZM280.376 21.1865L281.376 21.2044L281.376 21.1983L280.376 21.1865ZM281.402 41.438L281.731 42.3823L282.483 42.1204L282.396 41.3292L281.402 41.438ZM273.711 44.3311L273.347 43.4L272.303 43.8088L272.828 44.7989L273.711 44.3311ZM276.678 49.9341L275.794 50.402L276.244 51.2516L277.11 50.8356L276.678 49.9341ZM281.951 47.8101L282.942 47.6714L282.776 46.4893L281.641 46.8593L281.951 47.8101ZM282.94 53.999L283.856 54.401L283.977 54.1245L283.925 53.827L282.94 53.999ZM278.838 60.0415L278.067 59.4046L277.821 59.7025L277.839 60.0885L278.838 60.0415ZM278.289 76.521L277.345 76.1906L277.343 76.1977L277.34 76.2048L278.289 76.521ZM273.858 82.1973L273.297 81.3696L272.668 81.7958L272.91 82.5158L273.858 82.1973ZM275.396 86.7749L274.448 87.0934L274.826 88.2171L275.87 87.6556L275.396 86.7749ZM301.067 72.9688L301.541 73.8495L302.369 73.4041L301.976 72.5501L301.067 72.9688ZM297.332 54.292L298.331 54.2496L298.304 53.6013L297.7 53.3623L297.332 54.292ZM293.45 52.7539L292.502 53.0701L292.649 53.512L293.082 53.6836L293.45 52.7539ZM292.571 45.7227L292.421 44.7339L291.75 44.8357L291.597 45.4978L292.571 45.7227ZM299.017 45.7593L299.236 44.7836L299.224 44.781L299.213 44.7787L299.017 45.7593ZM299.859 85.3833L298.864 85.2838L298.699 86.9336L300.235 86.3098L299.859 85.3833ZM330.071 73.1152L330.448 74.0418L331.397 73.656L330.988 72.716L330.071 73.1152ZM325.127 61.7627L326.044 61.3634L325.619 60.3874L324.672 60.8726L325.127 61.7627ZM317.547 65.6445L317.091 64.7544L313.773 66.4533L317.496 66.6432L317.547 65.6445ZM322.857 67.8418L321.857 67.8132L321.857 67.8275V67.8418H322.857ZM322.71 68.501L323.624 68.9072L323.63 68.8949L322.71 68.501ZM319.048 70.332L319.336 69.3742L319.316 69.3684L319.297 69.3634L319.048 70.332ZM316.998 62.3486L316 62.2816L315.999 62.2913L315.999 62.3011L316.998 62.3486ZM318.279 45.5396L319.276 45.6207L319.276 45.6193L318.279 45.5396ZM314.581 34.6631L314.248 35.6061L314.256 35.609L314.264 35.6118L314.581 34.6631ZM291.802 38.5815L290.802 38.5894L290.813 39.9133L292.083 39.5413L291.802 38.5815ZM299.932 0.275879L300.834 0.708145L302.096 -1.92388L299.485 -0.618548L299.932 0.275879ZM276.751 7.49023L276.581 6.50473L275.664 6.66259L275.756 7.58866L276.751 7.49023ZM278.069 20.8203L277.074 20.9187L279.033 21.0886L278.069 20.8203ZM279.377 21.1687C279.266 27.3692 279.598 34.1502 280.408 41.5468L282.396 41.3292C281.594 34.0041 281.267 27.3085 281.376 21.2044L279.377 21.1687ZM281.073 40.4937C278.636 41.3428 276.057 42.3377 273.347 43.4L274.076 45.2621C276.786 44.2004 279.334 43.2177 281.731 42.3823L281.073 40.4937ZM272.828 44.7989L275.794 50.402L277.562 49.4662L274.595 43.8632L272.828 44.7989ZM277.11 50.8356C278.902 49.9758 280.619 49.2964 282.261 48.7608L281.641 46.8593C279.915 47.4223 278.116 48.1346 276.245 49.0326L277.11 50.8356ZM280.961 47.9487C281.219 49.7942 281.551 51.8566 281.955 54.171L283.925 53.827C283.523 51.5272 283.196 49.4881 282.942 47.6714L280.961 47.9487ZM282.024 53.597C281.422 54.9689 280.139 56.8972 278.067 59.4046L279.609 60.6784C281.713 58.1321 283.14 56.0321 283.856 54.401L282.024 53.597ZM277.839 60.0885C277.985 63.1907 278.058 65.8843 278.058 68.1714H280.058C280.058 65.8443 279.984 63.1179 279.837 59.9945L277.839 60.0885ZM278.058 68.1714C278.058 72.2871 277.794 74.9076 277.345 76.1906L279.233 76.8513C279.809 75.2047 280.058 72.2588 280.058 68.1714H278.058ZM277.34 76.2048C276.648 78.283 275.294 80.0153 273.297 81.3696L274.419 83.025C276.743 81.4495 278.392 79.3732 279.238 76.8372L277.34 76.2048ZM272.91 82.5158L274.448 87.0934L276.344 86.4564L274.806 81.8788L272.91 82.5158ZM275.87 87.6556L301.541 73.8495L300.594 72.088L274.922 85.8942L275.87 87.6556ZM301.976 72.5501C299.89 68.025 298.658 61.9426 298.331 54.2496L296.333 54.3344C296.666 62.1688 297.924 68.5375 300.159 73.3874L301.976 72.5501ZM297.7 53.3623L293.819 51.8242L293.082 53.6836L296.964 55.2217L297.7 53.3623ZM294.399 52.4377C293.728 50.4246 293.425 48.6657 293.425 47.2241H291.425C291.425 48.932 291.781 50.9084 292.502 53.0701L294.399 52.4377ZM293.425 47.2241C293.425 46.7196 293.459 46.3248 293.546 45.9475L291.597 45.4978C291.464 46.0726 291.425 46.63 291.425 47.2241H293.425ZM292.721 46.7114C293.879 46.536 294.927 46.4663 295.904 46.4663V44.4663C294.83 44.4663 293.681 44.5431 292.421 44.7339L292.721 46.7114ZM295.904 46.4663C296.977 46.4663 297.973 46.5703 298.82 46.7399L299.213 44.7787C298.229 44.582 297.102 44.4663 295.904 44.4663V46.4663ZM298.798 46.735C298.92 46.7625 299.117 46.8589 299.357 47.2224C299.603 47.5955 299.847 48.182 300.055 49.0356C300.47 50.7405 300.69 53.2732 300.69 56.6724H302.69C302.69 53.2234 302.47 50.501 301.998 48.562C301.762 47.5938 301.449 46.7612 301.026 46.1204C300.596 45.4699 300.01 44.9574 299.236 44.7836L298.798 46.735ZM300.69 56.6724C300.69 63.6908 300.071 73.2104 298.864 85.2838L300.854 85.4828C302.064 73.3863 302.69 63.7897 302.69 56.6724H300.69ZM300.235 86.3098L330.448 74.0418L329.695 72.1887L299.483 84.4568L300.235 86.3098ZM330.988 72.716L326.044 61.3634L324.211 62.162L329.154 73.5145L330.988 72.716ZM324.672 60.8726L317.091 64.7544L318.003 66.5346L325.583 62.6528L324.672 60.8726ZM317.496 66.6432C319.258 66.7331 320.456 66.9556 321.179 67.255C321.898 67.5531 321.858 67.7819 321.857 67.8132L323.857 67.8704C323.892 66.62 322.992 65.8417 321.944 65.4074C320.9 64.9744 319.425 64.739 317.598 64.6458L317.496 66.6432ZM321.857 67.8418C321.857 67.8855 321.849 67.9715 321.791 68.1071L323.63 68.8949C323.791 68.5178 323.857 68.1643 323.857 67.8418H321.857ZM321.797 68.0948C321.552 68.6454 321.279 68.984 321.012 69.1841C320.757 69.375 320.459 69.4785 320.074 69.4785V71.4785C320.861 71.4785 321.587 71.2525 322.212 70.7841C322.824 70.325 323.283 69.6749 323.624 68.9071L321.797 68.0948ZM320.074 69.4785C319.825 69.4785 319.595 69.4519 319.336 69.3742L318.761 71.2899C319.235 71.4319 319.663 71.4785 320.074 71.4785V69.4785ZM319.297 69.3634C319.02 69.2925 318.679 69.0555 318.39 68.2634C318.096 67.4586 317.924 66.2394 317.924 64.5459H315.924C315.924 66.3314 316.1 67.8222 316.511 68.9491C316.927 70.0888 317.648 71.0053 318.8 71.3007L319.297 69.3634ZM317.924 64.5459C317.924 63.879 317.959 63.1729 317.996 62.3962L315.999 62.3011C315.962 63.0625 315.924 63.8212 315.924 64.5459H317.924ZM317.995 62.4156C318.324 57.5159 318.763 51.9187 319.276 45.6207L317.283 45.4584C316.77 51.758 316.33 57.3669 316 62.2816L317.995 62.4156ZM319.276 45.6193C319.351 44.6802 319.389 43.7745 319.389 42.9395H317.389C317.389 43.7157 317.354 44.5678 317.282 45.4598L319.276 45.6193ZM319.389 42.9395C319.389 38.1769 318.09 34.7787 314.897 33.7144L314.264 35.6118C316.125 36.232 317.389 38.327 317.389 42.9395H319.389ZM314.913 33.7201C314.14 33.4472 313.171 33.3335 312.09 33.3335V35.3335C313.06 35.3335 313.776 35.4395 314.248 35.6061L314.913 33.7201ZM312.09 33.3335C308.009 33.3335 301.142 34.8052 291.521 37.6218L292.083 39.5413C301.726 36.7182 308.334 35.3335 312.09 35.3335V33.3335ZM292.802 38.5737C292.693 24.6856 295.376 12.094 300.834 0.708145L299.03 -0.156387C293.429 11.5291 290.691 24.4257 290.802 38.5894L292.802 38.5737ZM299.485 -0.618548C293.071 2.58837 285.441 4.97965 276.581 6.50473L276.921 8.47574C285.932 6.92465 293.756 4.48194 300.379 1.17031L299.485 -0.618548ZM275.756 7.58866L277.074 20.9187L279.064 20.7219L277.746 7.39181L275.756 7.58866ZM279.033 21.0886C279.433 19.6522 279.768 18.6164 280.039 17.9523C280.177 17.6142 280.28 17.4173 280.344 17.3209C280.377 17.2712 280.373 17.2887 280.327 17.3283C280.287 17.3622 280.113 17.499 279.827 17.499V15.499C279.45 15.499 279.177 15.6805 279.032 15.8038C278.88 15.9328 278.764 16.0844 278.678 16.2139C278.504 16.4757 278.342 16.8167 278.187 17.1973C277.872 17.9705 277.512 19.0953 277.106 20.552L279.033 21.0886ZM279.827 17.499C279.51 17.499 279.304 17.3314 279.219 17.2355C279.147 17.1543 279.135 17.0997 279.151 17.1433C279.182 17.2248 279.23 17.423 279.273 17.7916C279.357 18.5086 279.395 19.6284 279.377 21.1748L281.376 21.1983C281.395 19.6319 281.359 18.4079 281.26 17.5593C281.211 17.1451 281.141 16.7551 281.025 16.4441C280.968 16.2914 280.876 16.0895 280.717 15.91C280.545 15.7159 280.245 15.499 279.827 15.499V17.499ZM325.753 42.4268L325.072 41.6944L324.312 42.4005L325.046 43.1339L325.753 42.4268ZM328.976 45.6494L328.268 46.3565L328.965 47.0532L329.672 46.367L328.976 45.6494ZM332.015 43.8916L331.968 44.8905L331.991 44.8916H332.015V43.8916ZM333.187 44.5508L334.005 43.9753L333.996 43.9629L333.987 43.9508L333.187 44.5508ZM334.908 52.168L335.902 52.0586L335.901 52.0516L334.908 52.168ZM337.215 58.6865L337.165 59.6853L337.738 57.8339L337.215 58.6865ZM320.626 65.7178L319.812 65.1371L319.339 65.8L319.892 66.3973L320.626 65.7178ZM343.697 92.3779L342.912 92.9977L344.607 91.9634L343.697 92.3779ZM353.805 79.0479L353.631 80.0326L353.633 80.0331L353.805 79.0479ZM376.107 76.5576L376.876 77.1966L376.876 77.1965L376.107 76.5576ZM377.389 63.5571L378.305 63.1554L378.3 63.1454L377.389 63.5571ZM371.493 51.4355L370.971 50.5823L370.166 51.0746L370.611 51.9072L371.493 51.4355ZM374.862 50.2637L374.822 51.2629L374.842 51.2637H374.862V50.2637ZM378.744 55.1709L377.855 55.63L379.723 54.9683L378.744 55.1709ZM375.887 41.3647L376.866 41.1621L376.597 39.8586L375.42 40.4807L375.887 41.3647ZM368.197 45.4297V46.4297H368.445L368.664 46.3138L368.197 45.4297ZM367.831 45.3198L366.975 45.8368L367.09 46.028L367.276 46.1519L367.831 45.3198ZM365.157 37.2266L365.132 36.2269L365.106 36.2275L365.081 36.2295L365.157 37.2266ZM369.039 41.3281L368.113 41.7058L370.025 41.1607L369.039 41.3281ZM367.098 29.9023L368.084 29.7349L367.922 28.7819L366.964 28.9114L367.098 29.9023ZM350.802 30.6714L350.83 29.6718L349.12 29.6229L349.917 31.1371L350.802 30.6714ZM359.957 48.0664L360.419 48.9533L361.31 48.4894L360.842 47.6007L359.957 48.0664ZM353.512 48.2495L352.628 48.7174L352.634 48.7284L353.512 48.2495ZM350.655 36.897L351.643 36.7377L351.642 36.7358L350.655 36.897ZM346.078 23.5303L346.93 23.0067L346.291 21.9669L345.397 22.7979L346.078 23.5303ZM363.253 55.8301L364.1 55.2981L363.671 54.6159L362.913 54.8895L363.253 55.8301ZM365.89 62.019L364.89 61.9905L364.89 62.0048V62.019H365.89ZM365.157 63.374L365.604 64.2685L365.618 64.2617L365.631 64.2545L365.157 63.374ZM357.87 63.2642L358.165 62.3087L358.153 62.3052L357.87 63.2642ZM353.951 62.0923L353.635 63.041L353.789 63.0923H353.951V62.0923ZM350.252 60.3345L349.945 59.3828L347.955 60.0248L349.704 61.1709L350.252 60.3345ZM325.046 43.1339L328.268 46.3565L329.683 44.9423L326.46 41.7197L325.046 43.1339ZM329.672 46.367C330.26 45.7967 330.761 45.4076 331.173 45.1699C331.595 44.9267 331.849 44.8848 331.968 44.8905L332.063 42.8927C331.412 42.8618 330.769 43.0946 330.174 43.4373C329.57 43.7855 328.937 44.2936 328.279 44.9318L329.672 46.367ZM332.015 44.8916C332.098 44.8916 332.194 44.8933 332.387 45.1508L333.987 43.9508C333.521 43.3293 332.884 42.8916 332.015 42.8916V44.8916ZM332.369 45.1263C332.593 45.4446 332.872 46.1593 333.154 47.4235C333.427 48.6478 333.679 50.2665 333.915 52.2843L335.901 52.0516C335.662 50.0045 335.401 48.309 335.106 46.9881C334.82 45.7071 334.477 44.6458 334.005 43.9753L332.369 45.1263ZM333.914 52.2773C334.12 54.1454 334.424 55.6863 334.845 56.8737C335.256 58.0335 335.832 59.0117 336.693 59.5391L337.738 57.8339C337.463 57.6656 337.088 57.2156 336.73 56.2055C336.381 55.2231 336.1 53.8527 335.902 52.0586L333.914 52.2773ZM337.265 57.6878C336.538 57.6514 335.78 57.6133 335.055 57.6133V59.6133C335.721 59.6133 336.428 59.6484 337.165 59.6853L337.265 57.6878ZM335.055 57.6133C328.496 57.6133 323.383 60.1291 319.812 65.1371L321.44 66.2984C324.607 61.8583 329.089 59.6133 335.055 59.6133V57.6133ZM319.892 66.3973C329.072 76.308 336.744 85.1866 342.912 92.9977L344.482 91.7582C338.273 83.8954 330.564 74.9761 321.36 65.0383L319.892 66.3973ZM344.607 91.9634C343.127 88.7134 342.427 86.1589 342.427 84.248H340.427C340.427 86.5853 341.265 89.4506 342.787 92.7925L344.607 91.9634ZM342.427 84.248C342.427 82.5754 342.952 81.4742 343.883 80.7545C344.863 79.9968 346.453 79.5352 348.824 79.5352V77.5352C346.252 77.5352 344.143 78.0257 342.66 79.1723C341.128 80.3569 340.427 82.1121 340.427 84.248H342.427ZM348.824 79.5352C350.174 79.5352 351.797 79.7089 353.631 80.0326L353.978 78.0631C352.078 77.7276 350.331 77.5352 348.824 77.5352V79.5352ZM353.633 80.0331C357.881 80.7718 361.567 81.1465 364.754 81.1465V79.1465C361.716 79.1465 358.151 78.7887 353.976 78.0626L353.633 80.0331ZM364.754 81.1465C370.434 81.1465 374.602 79.9335 376.876 77.1966L375.338 75.9186C373.656 77.9425 370.281 79.1465 364.754 79.1465V81.1465ZM376.876 77.1965C378.806 74.8723 379.78 72.3065 379.78 69.4897H377.78C377.78 71.7999 376.996 73.9216 375.338 75.9187L376.876 77.1965ZM379.78 69.4897C379.78 67.4515 379.261 65.3362 378.304 63.1555L376.473 63.9588C377.347 65.9529 377.78 67.7926 377.78 69.4897H379.78ZM378.3 63.1454C376.059 58.1866 374.072 54.1375 372.374 50.9639L370.611 51.9072C372.283 55.0324 374.25 59.04 376.477 63.9689L378.3 63.1454ZM372.014 52.2888C373.274 51.5186 374.202 51.2381 374.822 51.2629L374.902 49.2645C373.69 49.216 372.348 49.7411 370.971 50.5823L372.014 52.2888ZM374.862 51.2637C374.791 51.2637 374.834 51.235 375.02 51.3735C375.198 51.5066 375.435 51.7407 375.729 52.1138C376.316 52.8588 377.023 54.0196 377.855 55.63L379.632 54.7117C378.78 53.0629 378.004 51.7701 377.3 50.8763C376.948 50.43 376.588 50.0484 376.216 49.7707C375.851 49.4983 375.391 49.2637 374.862 49.2637V51.2637ZM379.723 54.9683L376.866 41.1621L374.908 41.5674L377.764 55.3735L379.723 54.9683ZM375.42 40.4807L367.729 44.5456L368.664 46.3138L376.355 42.2488L375.42 40.4807ZM368.197 44.4297C368.21 44.4297 368.246 44.4317 368.294 44.4464C368.342 44.4612 368.374 44.4803 368.385 44.4878L367.276 46.1519C367.545 46.3311 367.847 46.4297 368.197 46.4297V44.4297ZM368.687 44.8028C367.578 42.9669 366.756 41.4731 366.215 40.3074C365.653 39.0965 365.461 38.377 365.461 38.0322H363.461C363.461 38.8593 363.837 39.9343 364.401 41.1495C364.986 42.4099 365.85 43.974 366.975 45.8368L368.687 44.8028ZM365.461 38.0322C365.461 37.9007 365.492 37.9837 365.388 38.1038C365.337 38.1635 365.279 38.1989 365.239 38.2162C365.203 38.2312 365.195 38.2266 365.234 38.2236L365.081 36.2295C364.682 36.2602 364.218 36.3985 363.873 36.7979C363.541 37.1835 363.461 37.651 363.461 38.0322H365.461ZM365.183 38.2262C365.535 38.2172 365.966 38.3667 366.484 38.9098C367.013 39.4653 367.569 40.3725 368.113 41.7058L369.965 40.9504C369.374 39.5005 368.703 38.3387 367.932 37.53C367.149 36.709 366.207 36.1993 365.132 36.2269L365.183 38.2262ZM370.025 41.1607L368.084 29.7349L366.112 30.0698L368.053 41.4956L370.025 41.1607ZM366.964 28.9114C362.943 29.4548 358.812 29.7446 354.61 29.7446V31.7446C358.904 31.7446 363.124 31.4485 367.232 30.8933L366.964 28.9114ZM354.61 29.7446C353.345 29.7446 352.115 29.7085 350.83 29.6718L350.773 31.671C352.052 31.7075 353.312 31.7446 354.61 31.7446V29.7446ZM349.917 31.1371L359.072 48.5322L360.842 47.6007L351.687 30.2056L349.917 31.1371ZM359.495 47.1795C357.773 48.0763 356.522 48.458 355.672 48.458V50.458C357.02 50.458 358.625 49.8876 360.419 48.9533L359.495 47.1795ZM355.672 48.458C355.006 48.458 354.634 48.2184 354.39 47.7707L352.634 48.7284C353.268 49.8919 354.361 50.458 355.672 50.458V48.458ZM354.396 47.7816C353.495 46.0811 352.561 42.4333 351.643 36.7377L349.668 37.0562C350.58 42.7132 351.551 46.6826 352.628 48.7174L354.396 47.7816ZM351.642 36.7358C350.748 31.2614 349.176 26.6614 346.93 23.0067L345.226 24.0539C347.301 27.4304 348.804 31.7659 349.668 37.0581L351.642 36.7358ZM345.397 22.7979L325.072 41.6944L326.434 43.1591L346.759 24.2626L345.397 22.7979ZM362.406 56.362C363.288 57.7662 363.927 58.9439 364.338 59.9075C364.757 60.89 364.902 61.5646 364.89 61.9905L366.889 62.0476C366.914 61.1918 366.637 60.2001 366.178 59.1226C365.71 58.0263 365.012 56.7504 364.1 55.2981L362.406 56.362ZM364.89 62.019C364.89 62.2197 364.851 62.3198 364.826 62.365C364.805 62.4037 364.77 62.4469 364.683 62.4936L365.631 64.2545C366.021 64.0448 366.352 63.7401 366.578 63.3302C366.8 62.9268 366.89 62.4776 366.89 62.019H364.89ZM364.71 62.4796C363.72 62.9747 362.847 63.1797 362.118 63.1797V65.1797C363.219 65.1797 364.397 64.8719 365.604 64.2685L364.71 62.4796ZM362.118 63.1797C361.441 63.1797 360.178 62.931 358.165 62.3088L357.574 64.2196C359.589 64.8424 361.11 65.1797 362.118 65.1797V63.1797ZM358.153 62.3052C356.856 61.9215 355.888 61.6292 355.239 61.4328C354.916 61.3348 354.668 61.2597 354.501 61.2094C354.417 61.1844 354.349 61.1642 354.299 61.1499C354.275 61.143 354.249 61.1356 354.225 61.1294C354.214 61.1265 354.195 61.1216 354.173 61.1167C354.162 61.1144 354.142 61.1102 354.118 61.1062C354.108 61.1045 354.039 61.0923 353.951 61.0923V63.0923C353.865 63.0923 353.797 63.0803 353.79 63.079C353.768 63.0753 353.751 63.0718 353.744 63.0702C353.735 63.0683 353.729 63.0668 353.726 63.0661C353.723 63.0653 353.721 63.0648 353.72 63.0646C353.72 63.0644 353.721 63.0649 353.727 63.0664C353.732 63.0678 353.739 63.0697 353.748 63.0723C353.785 63.083 353.843 63.1003 353.926 63.1251C354.09 63.1744 354.333 63.248 354.659 63.3469C355.31 63.5441 356.283 63.8377 357.586 64.2231L358.153 62.3052ZM354.267 61.1436C352.914 60.6925 351.785 60.1427 350.8 59.498L349.704 61.1709C350.844 61.9178 352.132 62.5399 353.635 63.041L354.267 61.1436ZM350.559 61.2862C353.981 60.1824 358.315 58.6766 363.593 56.7706L362.913 54.8895C357.644 56.7922 353.335 58.2893 349.945 59.3828L350.559 61.2862Z" fill="currentColor"/>
</svg>
